<svg width="83" height="12" viewBox="0 0 83 12" fill="none" xmlns="http://www.w3.org/2000/svg">
<path d="M7.86914 4.61328L7.52344 4.8418C7.3125 4.5293 7.03711 4.2832 6.69727 4.10352C6.36133 3.91992 5.99609 3.82812 5.60156 3.82812C4.96094 3.82812 4.41406 4.05469 3.96094 4.50781C3.50781 4.96094 3.28125 5.50781 3.28125 6.14844C3.28125 6.78906 3.50781 7.33594 3.96094 7.78906C4.41406 8.24219 4.96094 8.46875 5.60156 8.46875C5.99609 8.46875 6.36133 8.37695 6.69727 8.19336C7.03711 8.00977 7.3125 7.76172 7.52344 7.44922L7.86328 7.69531C7.61328 8.0625 7.28906 8.35352 6.89062 8.56836C6.49219 8.7832 6.0625 8.89062 5.60156 8.89062C5.23047 8.89062 4.875 8.81836 4.53516 8.67383C4.19922 8.5293 3.9082 8.33398 3.66211 8.08789C3.41602 7.8418 3.2207 7.55078 3.07617 7.21484C2.93164 6.875 2.85938 6.51953 2.85938 6.14844C2.85938 5.77734 2.93164 5.42383 3.07617 5.08789C3.2207 4.74805 3.41602 4.45508 3.66211 4.20898C3.9082 3.96289 4.19922 3.76758 4.53516 3.62305C4.875 3.47852 5.23047 3.40625 5.60156 3.40625C6.06641 3.40625 6.49805 3.51562 6.89648 3.73438C7.29492 3.94922 7.61914 4.24219 7.86914 4.61328ZM8.56641 4.13281L8.21484 4.36133C7.92578 3.93945 7.55078 3.60547 7.08984 3.35938C6.63281 3.10938 6.13672 2.98438 5.60156 2.98438C5.02734 2.98438 4.49805 3.12695 4.01367 3.41211C3.5293 3.69336 3.14453 4.07617 2.85938 4.56055C2.57812 5.04492 2.4375 5.57422 2.4375 6.14844C2.4375 6.72266 2.57812 7.25195 2.85938 7.73633C3.14453 8.2207 3.5293 8.60547 4.01367 8.89062C4.49805 9.17188 5.02734 9.3125 5.60156 9.3125C6.13672 9.3125 6.63477 9.1875 7.0957 8.9375C7.55664 8.6875 7.93164 8.34961 8.2207 7.92383L8.56641 8.16406C8.23828 8.64844 7.8125 9.03125 7.28906 9.3125C6.76953 9.59375 6.20703 9.73438 5.60156 9.73438C4.95312 9.73438 4.35352 9.57422 3.80273 9.25391C3.25195 8.93359 2.81641 8.49805 2.49609 7.94727C2.17578 7.39648 2.01562 6.79688 2.01562 6.14844C2.01562 5.5 2.17578 4.90039 2.49609 4.34961C2.81641 3.79883 3.25195 3.36328 3.80273 3.04297C4.35352 2.72266 4.95312 2.5625 5.60156 2.5625C6.20703 2.5625 6.76953 2.70312 7.28906 2.98438C7.8125 3.26562 8.23828 3.64844 8.56641 4.13281ZM9.26953 3.66406L8.91797 3.89258C8.55078 3.35352 8.07422 2.92773 7.48828 2.61523C6.90625 2.29883 6.27734 2.14062 5.60156 2.14062C5.05859 2.14062 4.53906 2.24609 4.04297 2.45703C3.54688 2.66797 3.11914 2.95312 2.75977 3.3125C2.4043 3.66797 2.12109 4.09375 1.91016 4.58984C1.69922 5.08594 1.59375 5.60547 1.59375 6.14844C1.59375 6.69141 1.69922 7.21094 1.91016 7.70703C2.12109 8.20312 2.4043 8.63086 2.75977 8.99023C3.11914 9.3457 3.54688 9.62891 4.04297 9.83984C4.53906 10.0508 5.05859 10.1562 5.60156 10.1562C6.28125 10.1562 6.91211 9.99805 7.49414 9.68164C8.07617 9.36523 8.55078 8.9375 8.91797 8.39844L9.25781 8.65039C8.85156 9.24414 8.32617 9.71484 7.68164 10.0625C7.04102 10.4062 6.34766 10.5781 5.60156 10.5781C4.80078 10.5781 4.06055 10.3809 3.38086 9.98633C2.70117 9.58789 2.16211 9.04883 1.76367 8.36914C1.36914 7.68945 1.17188 6.94922 1.17188 6.14844C1.17188 5.34766 1.36914 4.60742 1.76367 3.92773C2.16211 3.24805 2.70117 2.71094 3.38086 2.31641C4.06055 1.91797 4.80078 1.71875 5.60156 1.71875C6.35156 1.71875 7.04883 1.89453 7.69336 2.24609C8.33789 2.59375 8.86328 3.06641 9.26953 3.66406ZM9.96094 3.18359L9.60938 3.41211C9.16406 2.75977 8.58789 2.24414 7.88086 1.86523C7.17773 1.48633 6.41797 1.29688 5.60156 1.29688C4.94531 1.29688 4.31641 1.42578 3.71484 1.68359C3.11719 1.9375 2.60156 2.28125 2.16797 2.71484C1.73438 3.14844 1.38867 3.66602 1.13086 4.26758C0.876953 4.86523 0.75 5.49219 0.75 6.14844C0.75 6.80469 0.876953 7.43359 1.13086 8.03516C1.38867 8.63281 1.73438 9.14844 2.16797 9.58203C2.60156 10.0156 3.11719 10.3613 3.71484 10.6191C4.31641 10.873 4.94531 11 5.60156 11C6.41797 11 7.17969 10.8086 7.88672 10.4258C8.59375 10.043 9.16992 9.52539 9.61523 8.87305L9.95508 9.13086C9.4707 9.83398 8.8457 10.3926 8.08008 10.8066C7.31445 11.2168 6.48828 11.4219 5.60156 11.4219C4.88672 11.4219 4.20312 11.2812 3.55078 11C2.90234 10.7227 2.3418 10.3496 1.86914 9.88086C1.40039 9.4082 1.02539 8.84766 0.744141 8.19922C0.466797 7.54688 0.328125 6.86328 0.328125 6.14844C0.328125 5.43359 0.466797 4.75195 0.744141 4.10352C1.02539 3.45117 1.40039 2.89062 1.86914 2.42188C2.3418 1.94922 2.90234 1.57422 3.55078 1.29688C4.20312 1.01562 4.88672 0.875 5.60156 0.875C6.49219 0.875 7.32031 1.08203 8.08594 1.49609C8.85156 1.91016 9.47656 2.47266 9.96094 3.18359ZM13.9629 6.17188H16.5059C16.8926 6.17188 17.2188 6.04688 17.4844 5.79688C17.7539 5.54688 17.8887 5.19141 17.8887 4.73047C17.8887 4.39062 17.748 4.08594 17.4668 3.81641C17.1855 3.54297 16.8652 3.40625 16.5059 3.40625H12.8848V11H12.4629V2.98438H16.5059C16.9824 2.98438 17.4023 3.16211 17.7656 3.51758C18.1289 3.86914 18.3105 4.27344 18.3105 4.73047C18.3105 5.29297 18.1348 5.74414 17.7832 6.08398C17.4316 6.42383 17.0059 6.59375 16.5059 6.59375H13.9629V6.17188ZM13.9629 7.01562H16.5059C17.1152 7.01562 17.6387 6.80273 18.0762 6.37695C18.5137 5.94727 18.7324 5.39844 18.7324 4.73047C18.7324 4.15625 18.5078 3.65234 18.0586 3.21875C17.6133 2.78125 17.0957 2.5625 16.5059 2.5625H12.041V11H11.6191V2.14062H16.5059C16.9707 2.14062 17.4062 2.25977 17.8125 2.49805C18.2227 2.73633 18.5488 3.05664 18.791 3.45898C19.0332 3.85742 19.1543 4.28125 19.1543 4.73047C19.1543 5.5 18.8926 6.14453 18.3691 6.66406C17.8496 7.17969 17.2285 7.4375 16.5059 7.4375H13.9629V7.01562ZM13.9629 7.85938H16.5059C17.0527 7.85938 17.5605 7.72461 18.0293 7.45508C18.498 7.18555 18.873 6.81055 19.1543 6.33008C19.4355 5.8457 19.5762 5.3125 19.5762 4.73047C19.5762 4.20312 19.4355 3.70898 19.1543 3.24805C18.877 2.7832 18.502 2.41211 18.0293 2.13477C17.5566 1.85742 17.0488 1.71875 16.5059 1.71875H11.1973V11H10.7754V1.29688H16.5059C17.1191 1.29688 17.6953 1.45508 18.2344 1.77148C18.7734 2.08398 19.2012 2.50586 19.5176 3.03711C19.8379 3.56445 19.998 4.12891 19.998 4.73047C19.998 5.42578 19.8477 6.03711 19.5469 6.56445C19.25 7.0918 18.8457 7.50391 18.334 7.80078L19.4238 11H18.9785L17.9355 8C17.7793 8.0625 17.6602 8.10547 17.5781 8.12891L18.5566 11H18.1113L17.1562 8.22852C17.1211 8.23633 16.9961 8.25 16.7812 8.26953L17.6895 11H17.2441L16.3477 8.28125H15.9668L16.8223 11H16.377L15.5156 8.28125H13.9629V7.85938ZM13.7285 11H13.3066V3.82812H16.5059C16.7676 3.82812 16.9922 3.91797 17.1797 4.09766C17.3711 4.27344 17.4668 4.48438 17.4668 4.73047C17.4668 5.41016 17.1465 5.75 16.5059 5.75H13.9629V5.32812H16.5059C16.6738 5.32812 16.8047 5.28516 16.8984 5.19922C16.9961 5.10938 17.0449 4.95312 17.0449 4.73047C17.0449 4.59375 16.9922 4.48047 16.8867 4.39062C16.7852 4.29688 16.6582 4.25 16.5059 4.25H13.7285V11ZM23.0039 4.50781C22.5508 4.96094 22.3242 5.50781 22.3242 6.14844C22.3242 6.78906 22.5508 7.33594 23.0039 7.78906C23.457 8.24219 24.0039 8.46875 24.6445 8.46875C25.2852 8.46875 25.832 8.24219 26.2852 7.78906C26.7383 7.33594 26.9648 6.78906 26.9648 6.14844C26.9648 5.50781 26.7383 4.96094 26.2852 4.50781C25.832 4.05469 25.2852 3.82812 24.6445 3.82812C24.0039 3.82812 23.457 4.05469 23.0039 4.50781ZM22.1191 7.21484C21.9746 6.875 21.9023 6.51953 21.9023 6.14844C21.9023 5.77734 21.9746 5.42383 22.1191 5.08789C22.2637 4.74805 22.459 4.45508 22.7051 4.20898C22.9512 3.96289 23.2422 3.76758 23.5781 3.62305C23.918 3.47852 24.2734 3.40625 24.6445 3.40625C25.0156 3.40625 25.3691 3.47852 25.7051 3.62305C26.0449 3.76758 26.3379 3.96289 26.584 4.20898C26.8301 4.45508 27.0254 4.74805 27.1699 5.08789C27.3145 5.42383 27.3867 5.77734 27.3867 6.14844C27.3867 6.51953 27.3145 6.875 27.1699 7.21484C27.0254 7.55078 26.8301 7.8418 26.584 8.08789C26.3379 8.33398 26.0449 8.5293 25.7051 8.67383C25.3691 8.81836 25.0156 8.89062 24.6445 8.89062C24.2734 8.89062 23.918 8.81836 23.5781 8.67383C23.2422 8.5293 22.9512 8.33398 22.7051 8.08789C22.459 7.8418 22.2637 7.55078 22.1191 7.21484ZM21.9023 4.56055C21.6211 5.04492 21.4805 5.57422 21.4805 6.14844C21.4805 6.72266 21.6211 7.25195 21.9023 7.73633C22.1875 8.2207 22.5723 8.60547 23.0566 8.89062C23.541 9.17188 24.0703 9.3125 24.6445 9.3125C25.2188 9.3125 25.748 9.17188 26.2324 8.89062C26.7168 8.60547 27.0996 8.2207 27.3809 7.73633C27.666 7.25195 27.8086 6.72266 27.8086 6.14844C27.8086 5.57422 27.666 5.04492 27.3809 4.56055C27.0996 4.07617 26.7168 3.69336 26.2324 3.41211C25.748 3.12695 25.2188 2.98438 24.6445 2.98438C24.0703 2.98438 23.541 3.12695 23.0566 3.41211C22.5723 3.69336 22.1875 4.07617 21.9023 4.56055ZM21.5391 7.94727C21.2188 7.39648 21.0586 6.79688 21.0586 6.14844C21.0586 5.5 21.2188 4.90039 21.5391 4.34961C21.8594 3.79883 22.2949 3.36328 22.8457 3.04297C23.3965 2.72266 23.9961 2.5625 24.6445 2.5625C25.293 2.5625 25.8926 2.72266 26.4434 3.04297C26.9941 3.36328 27.4297 3.79883 27.75 4.34961C28.0703 4.90039 28.2305 5.5 28.2305 6.14844C28.2305 6.79688 28.0703 7.39648 27.75 7.94727C27.4297 8.49805 26.9941 8.93359 26.4434 9.25391C25.8926 9.57422 25.293 9.73438 24.6445 9.73438C23.9961 9.73438 23.3965 9.57422 22.8457 9.25391C22.2949 8.93359 21.8594 8.49805 21.5391 7.94727ZM20.9531 4.58984C20.7422 5.08594 20.6367 5.60547 20.6367 6.14844C20.6367 6.69141 20.7422 7.21094 20.9531 7.70703C21.1641 8.20312 21.4473 8.63086 21.8027 8.99023C22.1621 9.3457 22.5898 9.62891 23.0859 9.83984C23.582 10.0508 24.1016 10.1562 24.6445 10.1562C25.1875 10.1562 25.707 10.0508 26.2031 9.83984C26.6992 9.62891 27.125 9.3457 27.4805 8.99023C27.8398 8.63086 28.125 8.20312 28.3359 7.70703C28.5469 7.21094 28.6523 6.69141 28.6523 6.14844C28.6523 5.60547 28.5469 5.08594 28.3359 4.58984C28.125 4.09375 27.8398 3.66797 27.4805 3.3125C27.125 2.95312 26.6992 2.66797 26.2031 2.45703C25.707 2.24609 25.1875 2.14062 24.6445 2.14062C24.1016 2.14062 23.582 2.24609 23.0859 2.45703C22.5898 2.66797 22.1621 2.95312 21.8027 3.3125C21.4473 3.66797 21.1641 4.09375 20.9531 4.58984ZM20.8066 8.36914C20.4121 7.68945 20.2148 6.94922 20.2148 6.14844C20.2148 5.34766 20.4121 4.60742 20.8066 3.92773C21.2051 3.24805 21.7441 2.71094 22.4238 2.31641C23.1035 1.91797 23.8438 1.71875 24.6445 1.71875C25.4453 1.71875 26.1855 1.91797 26.8652 2.31641C27.5449 2.71094 28.082 3.24805 28.4766 3.92773C28.875 4.60742 29.0742 5.34766 29.0742 6.14844C29.0742 6.94922 28.875 7.68945 28.4766 8.36914C28.082 9.04883 27.5449 9.58789 26.8652 9.98633C26.1855 10.3809 25.4453 10.5781 24.6445 10.5781C23.8438 10.5781 23.1035 10.3809 22.4238 9.98633C21.7441 9.58789 21.2051 9.04883 20.8066 8.36914ZM20.1738 4.26758C19.9199 4.86523 19.793 5.49219 19.793 6.14844C19.793 6.80469 19.9199 7.43359 20.1738 8.03516C20.4316 8.63281 20.7773 9.14844 21.2109 9.58203C21.6445 10.0156 22.1602 10.3613 22.7578 10.6191C23.3594 10.873 23.9883 11 24.6445 11C25.3008 11 25.9277 10.873 26.5254 10.6191C27.127 10.3613 27.6445 10.0156 28.0781 9.58203C28.5117 9.14844 28.8555 8.63281 29.1094 8.03516C29.3672 7.43359 29.4961 6.80469 29.4961 6.14844C29.4961 5.49219 29.3672 4.86523 29.1094 4.26758C28.8555 3.66602 28.5117 3.14844 28.0781 2.71484C27.6445 2.28125 27.127 1.9375 26.5254 1.68359C25.9277 1.42578 25.3008 1.29688 24.6445 1.29688C23.9883 1.29688 23.3594 1.42578 22.7578 1.68359C22.1602 1.9375 21.6445 2.28125 21.2109 2.71484C20.7773 3.14844 20.4316 3.66602 20.1738 4.26758ZM19.7871 8.19922C19.5098 7.54688 19.3711 6.86328 19.3711 6.14844C19.3711 5.43359 19.5098 4.75195 19.7871 4.10352C20.0684 3.45117 20.4434 2.89062 20.9121 2.42188C21.3848 1.94922 21.9453 1.57422 22.5938 1.29688C23.2461 1.01562 23.9297 0.875 24.6445 0.875C25.3594 0.875 26.041 1.01562 26.6895 1.29688C27.3418 1.57422 27.9023 1.94922 28.3711 2.42188C28.8438 2.89062 29.2188 3.45117 29.4961 4.10352C29.7773 4.75195 29.918 5.43359 29.918 6.14844C29.918 6.86328 29.7773 7.54688 29.4961 8.19922C29.2188 8.84766 28.8438 9.4082 28.3711 9.88086C27.9023 10.3496 27.3418 10.7227 26.6895 11C26.041 11.2812 25.3594 11.4219 24.6445 11.4219C23.9297 11.4219 23.2461 11.2812 22.5938 11C21.9453 10.7227 21.3848 10.3496 20.9121 9.88086C20.4434 9.4082 20.0684 8.84766 19.7871 8.19922ZM34.7109 5.09375H34.002C33.7012 5.09375 33.4844 5.01758 33.3516 4.86523C33.2188 4.70898 33.1523 4.50391 33.1523 4.25C33.1523 3.6875 33.5723 3.40625 34.4121 3.40625C35.2012 3.40625 35.7949 3.52344 36.1934 3.75781L35.8535 4.01562C35.5801 3.89062 35.0996 3.82812 34.4121 3.82812C34.0762 3.82812 33.8496 3.86523 33.7324 3.93945C33.6191 4.01367 33.5625 4.11719 33.5625 4.25C33.5625 4.38281 33.5938 4.48633 33.6562 4.56055C33.7188 4.63477 33.834 4.67188 34.002 4.67188H34.7285C35.2559 4.67188 35.7305 4.76172 36.1523 4.94141C36.5781 5.12109 36.9277 5.36719 37.2012 5.67969C37.4746 5.98828 37.6836 6.3457 37.8281 6.75195C37.9727 7.1543 38.0449 7.58594 38.0449 8.04688C38.0449 8.42188 37.9922 8.77734 37.8867 9.11328C37.7812 9.44922 37.6211 9.75781 37.4062 10.0391C37.1953 10.3203 36.9395 10.5645 36.6387 10.7715C36.3418 10.9746 35.9863 11.1328 35.5723 11.2461C35.1621 11.3633 34.7168 11.4219 34.2363 11.4219C33.4824 11.4219 32.7754 11.3066 32.1152 11.0762C31.459 10.8496 30.9121 10.5312 30.4746 10.1211L30.8145 9.86914C31.2129 10.2285 31.7109 10.5078 32.3086 10.707C32.9102 10.9023 33.5527 11 34.2363 11C34.7715 11 35.2539 10.9238 35.6836 10.7715C36.1172 10.6152 36.4727 10.4023 36.75 10.1328C37.0312 9.86328 37.2461 9.55078 37.3945 9.19531C37.5469 8.83984 37.623 8.45703 37.623 8.04688C37.623 7.50391 37.5137 7.01367 37.2949 6.57617C37.0762 6.13477 36.7422 5.77734 36.293 5.50391C35.8477 5.23047 35.3203 5.09375 34.7109 5.09375ZM34.002 5.51562H34.6699C35.4629 5.51562 36.082 5.75781 36.5273 6.24219C36.9766 6.72656 37.2012 7.32812 37.2012 8.04688C37.2012 8.77734 36.9414 9.38281 36.4219 9.86328C35.9023 10.3398 35.1738 10.5781 34.2363 10.5781C33.6113 10.5781 33.0273 10.4922 32.4844 10.3203C31.9414 10.1484 31.4902 9.90625 31.1309 9.59375L31.459 9.33008C31.7793 9.5918 32.1816 9.79492 32.666 9.93945C33.1543 10.084 33.6777 10.1562 34.2363 10.1562C35.0605 10.1562 35.6895 9.95898 36.123 9.56445C36.5605 9.16992 36.7793 8.66406 36.7793 8.04688C36.7793 7.4375 36.5957 6.93359 36.2285 6.53516C35.8652 6.13672 35.3438 5.9375 34.6641 5.9375H34.002C33.4316 5.9375 33.0039 5.78125 32.7188 5.46875C32.4336 5.15625 32.291 4.75 32.291 4.25C32.291 3.75 32.4668 3.34375 32.8184 3.03125C33.1738 2.71875 33.7051 2.5625 34.4121 2.5625C34.9082 2.5625 35.3691 2.62109 35.7949 2.73828C36.2207 2.85156 36.5723 3.01562 36.8496 3.23047L36.5156 3.48828C36.0273 3.15234 35.3262 2.98438 34.4121 2.98438C33.8223 2.98438 33.3906 3.10156 33.1172 3.33594C32.8477 3.56641 32.7129 3.87109 32.7129 4.25C32.7129 4.63281 32.8125 4.93945 33.0117 5.16992C33.2148 5.40039 33.5449 5.51562 34.002 5.51562ZM34.002 6.35938H34.6465C35.2168 6.35938 35.6445 6.51758 35.9297 6.83398C36.2148 7.15039 36.3574 7.55469 36.3574 8.04688C36.3574 8.54688 36.1797 8.95312 35.8242 9.26562C35.4727 9.57812 34.9434 9.73438 34.2363 9.73438C33.7402 9.73438 33.2773 9.67773 32.8477 9.56445C32.4219 9.44727 32.0703 9.28125 31.793 9.06641L32.127 8.80859C32.6152 9.14453 33.3184 9.3125 34.2363 9.3125C34.8262 9.3125 35.2559 9.19727 35.5254 8.9668C35.7988 8.73242 35.9355 8.42578 35.9355 8.04688C35.9355 7.66797 35.834 7.36328 35.6309 7.13281C35.4277 6.89844 35.0977 6.78125 34.6406 6.78125H34.002C33.2012 6.78125 32.5742 6.54297 32.1211 6.06641C31.6719 5.58594 31.4473 4.98047 31.4473 4.25C31.4473 3.51953 31.707 2.91602 32.2266 2.43945C32.7461 1.95898 33.4746 1.71875 34.4121 1.71875C35.0371 1.71875 35.6191 1.80469 36.1582 1.97656C36.7012 2.14844 37.1523 2.39062 37.5117 2.70312L37.1836 2.9668C36.8633 2.70508 36.4609 2.50195 35.9766 2.35742C35.4922 2.21289 34.9707 2.14062 34.4121 2.14062C33.5879 2.14062 32.957 2.33789 32.5195 2.73242C32.0859 3.12695 31.8691 3.63281 31.8691 4.25C31.8691 4.86328 32.0527 5.36914 32.4199 5.76758C32.7871 6.16211 33.3145 6.35938 34.002 6.35938ZM34.002 7.20312H34.6465C34.9473 7.20312 35.1641 7.28125 35.2969 7.4375C35.4297 7.59375 35.4961 7.79688 35.4961 8.04688C35.4961 8.60938 35.0762 8.89062 34.2363 8.89062C33.4434 8.89062 32.8477 8.77344 32.4492 8.53906L32.7891 8.28125C33.0625 8.40625 33.5449 8.46875 34.2363 8.46875C34.5723 8.46875 34.7969 8.43164 34.9102 8.35742C35.0273 8.2832 35.0859 8.17969 35.0859 8.04688C35.0859 7.91797 35.0527 7.81641 34.9863 7.74219C34.9238 7.66406 34.8066 7.625 34.6348 7.625H34.002C33.4629 7.625 32.9746 7.53711 32.5371 7.36133C32.1035 7.18555 31.7461 6.94336 31.4648 6.63477C31.1875 6.32617 30.9746 5.96875 30.8262 5.5625C30.6777 5.15625 30.6035 4.71875 30.6035 4.25C30.6035 3.875 30.6562 3.51953 30.7617 3.18359C30.8672 2.84766 31.0254 2.53906 31.2363 2.25781C31.4512 1.97656 31.707 1.73438 32.0039 1.53125C32.3047 1.32422 32.6602 1.16406 33.0703 1.05078C33.4844 0.933594 33.9316 0.875 34.4121 0.875C35.166 0.875 35.8711 0.990234 36.5273 1.2207C37.1836 1.44727 37.7305 1.76562 38.168 2.17578L37.8281 2.42773C37.4297 2.06836 36.9316 1.79102 36.334 1.5957C35.7363 1.39648 35.0957 1.29688 34.4121 1.29688C33.877 1.29688 33.3926 1.375 32.959 1.53125C32.5293 1.68359 32.1738 1.89453 31.8926 2.16406C31.6152 2.43359 31.4004 2.74609 31.248 3.10156C31.0996 3.45703 31.0254 3.83984 31.0254 4.25C31.0254 4.80078 31.1367 5.29688 31.3594 5.73828C31.582 6.17969 31.9219 6.53516 32.3789 6.80469C32.8359 7.07031 33.377 7.20312 34.002 7.20312ZM42.9023 5.09375H42.1934C41.8926 5.09375 41.6758 5.01758 41.543 4.86523C41.4102 4.70898 41.3438 4.50391 41.3438 4.25C41.3438 3.6875 41.7637 3.40625 42.6035 3.40625C43.3926 3.40625 43.9863 3.52344 44.3848 3.75781L44.0449 4.01562C43.7715 3.89062 43.291 3.82812 42.6035 3.82812C42.2676 3.82812 42.041 3.86523 41.9238 3.93945C41.8105 4.01367 41.7539 4.11719 41.7539 4.25C41.7539 4.38281 41.7852 4.48633 41.8477 4.56055C41.9102 4.63477 42.0254 4.67188 42.1934 4.67188H42.9199C43.4473 4.67188 43.9219 4.76172 44.3438 4.94141C44.7695 5.12109 45.1191 5.36719 45.3926 5.67969C45.666 5.98828 45.875 6.3457 46.0195 6.75195C46.1641 7.1543 46.2363 7.58594 46.2363 8.04688C46.2363 8.42188 46.1836 8.77734 46.0781 9.11328C45.9727 9.44922 45.8125 9.75781 45.5977 10.0391C45.3867 10.3203 45.1309 10.5645 44.8301 10.7715C44.5332 10.9746 44.1777 11.1328 43.7637 11.2461C43.3535 11.3633 42.9082 11.4219 42.4277 11.4219C41.6738 11.4219 40.9668 11.3066 40.3066 11.0762C39.6504 10.8496 39.1035 10.5312 38.666 10.1211L39.0059 9.86914C39.4043 10.2285 39.9023 10.5078 40.5 10.707C41.1016 10.9023 41.7441 11 42.4277 11C42.9629 11 43.4453 10.9238 43.875 10.7715C44.3086 10.6152 44.6641 10.4023 44.9414 10.1328C45.2227 9.86328 45.4375 9.55078 45.5859 9.19531C45.7383 8.83984 45.8145 8.45703 45.8145 8.04688C45.8145 7.50391 45.7051 7.01367 45.4863 6.57617C45.2676 6.13477 44.9336 5.77734 44.4844 5.50391C44.0391 5.23047 43.5117 5.09375 42.9023 5.09375ZM42.1934 5.51562H42.8613C43.6543 5.51562 44.2734 5.75781 44.7188 6.24219C45.168 6.72656 45.3926 7.32812 45.3926 8.04688C45.3926 8.77734 45.1328 9.38281 44.6133 9.86328C44.0938 10.3398 43.3652 10.5781 42.4277 10.5781C41.8027 10.5781 41.2188 10.4922 40.6758 10.3203C40.1328 10.1484 39.6816 9.90625 39.3223 9.59375L39.6504 9.33008C39.9707 9.5918 40.373 9.79492 40.8574 9.93945C41.3457 10.084 41.8691 10.1562 42.4277 10.1562C43.252 10.1562 43.8809 9.95898 44.3145 9.56445C44.752 9.16992 44.9707 8.66406 44.9707 8.04688C44.9707 7.4375 44.7871 6.93359 44.4199 6.53516C44.0566 6.13672 43.5352 5.9375 42.8555 5.9375H42.1934C41.623 5.9375 41.1953 5.78125 40.9102 5.46875C40.625 5.15625 40.4824 4.75 40.4824 4.25C40.4824 3.75 40.6582 3.34375 41.0098 3.03125C41.3652 2.71875 41.8965 2.5625 42.6035 2.5625C43.0996 2.5625 43.5605 2.62109 43.9863 2.73828C44.4121 2.85156 44.7637 3.01562 45.041 3.23047L44.707 3.48828C44.2188 3.15234 43.5176 2.98438 42.6035 2.98438C42.0137 2.98438 41.582 3.10156 41.3086 3.33594C41.0391 3.56641 40.9043 3.87109 40.9043 4.25C40.9043 4.63281 41.0039 4.93945 41.2031 5.16992C41.4062 5.40039 41.7363 5.51562 42.1934 5.51562ZM42.1934 6.35938H42.8379C43.4082 6.35938 43.8359 6.51758 44.1211 6.83398C44.4062 7.15039 44.5488 7.55469 44.5488 8.04688C44.5488 8.54688 44.3711 8.95312 44.0156 9.26562C43.6641 9.57812 43.1348 9.73438 42.4277 9.73438C41.9316 9.73438 41.4688 9.67773 41.0391 9.56445C40.6133 9.44727 40.2617 9.28125 39.9844 9.06641L40.3184 8.80859C40.8066 9.14453 41.5098 9.3125 42.4277 9.3125C43.0176 9.3125 43.4473 9.19727 43.7168 8.9668C43.9902 8.73242 44.127 8.42578 44.127 8.04688C44.127 7.66797 44.0254 7.36328 43.8223 7.13281C43.6191 6.89844 43.2891 6.78125 42.832 6.78125H42.1934C41.3926 6.78125 40.7656 6.54297 40.3125 6.06641C39.8633 5.58594 39.6387 4.98047 39.6387 4.25C39.6387 3.51953 39.8984 2.91602 40.418 2.43945C40.9375 1.95898 41.666 1.71875 42.6035 1.71875C43.2285 1.71875 43.8105 1.80469 44.3496 1.97656C44.8926 2.14844 45.3438 2.39062 45.7031 2.70312L45.375 2.9668C45.0547 2.70508 44.6523 2.50195 44.168 2.35742C43.6836 2.21289 43.1621 2.14062 42.6035 2.14062C41.7793 2.14062 41.1484 2.33789 40.7109 2.73242C40.2773 3.12695 40.0605 3.63281 40.0605 4.25C40.0605 4.86328 40.2441 5.36914 40.6113 5.76758C40.9785 6.16211 41.5059 6.35938 42.1934 6.35938ZM42.1934 7.20312H42.8379C43.1387 7.20312 43.3555 7.28125 43.4883 7.4375C43.6211 7.59375 43.6875 7.79688 43.6875 8.04688C43.6875 8.60938 43.2676 8.89062 42.4277 8.89062C41.6348 8.89062 41.0391 8.77344 40.6406 8.53906L40.9805 8.28125C41.2539 8.40625 41.7363 8.46875 42.4277 8.46875C42.7637 8.46875 42.9883 8.43164 43.1016 8.35742C43.2188 8.2832 43.2773 8.17969 43.2773 8.04688C43.2773 7.91797 43.2441 7.81641 43.1777 7.74219C43.1152 7.66406 42.998 7.625 42.8262 7.625H42.1934C41.6543 7.625 41.166 7.53711 40.7285 7.36133C40.2949 7.18555 39.9375 6.94336 39.6562 6.63477C39.3789 6.32617 39.166 5.96875 39.0176 5.5625C38.8691 5.15625 38.7949 4.71875 38.7949 4.25C38.7949 3.875 38.8477 3.51953 38.9531 3.18359C39.0586 2.84766 39.2168 2.53906 39.4277 2.25781C39.6426 1.97656 39.8984 1.73438 40.1953 1.53125C40.4961 1.32422 40.8516 1.16406 41.2617 1.05078C41.6758 0.933594 42.123 0.875 42.6035 0.875C43.3574 0.875 44.0625 0.990234 44.7188 1.2207C45.375 1.44727 45.9219 1.76562 46.3594 2.17578L46.0195 2.42773C45.6211 2.06836 45.123 1.79102 44.5254 1.5957C43.9277 1.39648 43.2871 1.29688 42.6035 1.29688C42.0684 1.29688 41.584 1.375 41.1504 1.53125C40.7207 1.68359 40.3652 1.89453 40.084 2.16406C39.8066 2.43359 39.5918 2.74609 39.4395 3.10156C39.291 3.45703 39.2168 3.83984 39.2168 4.25C39.2168 4.80078 39.3281 5.29688 39.5508 5.73828C39.7734 6.17969 40.1133 6.53516 40.5703 6.80469C41.0273 7.07031 41.5684 7.20312 42.1934 7.20312ZM54.498 4.61328L54.1523 4.8418C53.9414 4.5293 53.666 4.2832 53.3262 4.10352C52.9902 3.91992 52.625 3.82812 52.2305 3.82812C51.5898 3.82812 51.043 4.05469 50.5898 4.50781C50.1367 4.96094 49.9102 5.50781 49.9102 6.14844C49.9102 6.78906 50.1367 7.33594 50.5898 7.78906C51.043 8.24219 51.5898 8.46875 52.2305 8.46875C52.625 8.46875 52.9902 8.37695 53.3262 8.19336C53.666 8.00977 53.9414 7.76172 54.1523 7.44922L54.4922 7.69531C54.2422 8.0625 53.918 8.35352 53.5195 8.56836C53.1211 8.7832 52.6914 8.89062 52.2305 8.89062C51.8594 8.89062 51.5039 8.81836 51.1641 8.67383C50.8281 8.5293 50.5371 8.33398 50.291 8.08789C50.0449 7.8418 49.8496 7.55078 49.7051 7.21484C49.5605 6.875 49.4883 6.51953 49.4883 6.14844C49.4883 5.77734 49.5605 5.42383 49.7051 5.08789C49.8496 4.74805 50.0449 4.45508 50.291 4.20898C50.5371 3.96289 50.8281 3.76758 51.1641 3.62305C51.5039 3.47852 51.8594 3.40625 52.2305 3.40625C52.6953 3.40625 53.127 3.51562 53.5254 3.73438C53.9238 3.94922 54.248 4.24219 54.498 4.61328ZM55.1953 4.13281L54.8438 4.36133C54.5547 3.93945 54.1797 3.60547 53.7188 3.35938C53.2617 3.10938 52.7656 2.98438 52.2305 2.98438C51.6562 2.98438 51.127 3.12695 50.6426 3.41211C50.1582 3.69336 49.7734 4.07617 49.4883 4.56055C49.207 5.04492 49.0664 5.57422 49.0664 6.14844C49.0664 6.72266 49.207 7.25195 49.4883 7.73633C49.7734 8.2207 50.1582 8.60547 50.6426 8.89062C51.127 9.17188 51.6562 9.3125 52.2305 9.3125C52.7656 9.3125 53.2637 9.1875 53.7246 8.9375C54.1855 8.6875 54.5605 8.34961 54.8496 7.92383L55.1953 8.16406C54.8672 8.64844 54.4414 9.03125 53.918 9.3125C53.3984 9.59375 52.8359 9.73438 52.2305 9.73438C51.582 9.73438 50.9824 9.57422 50.4316 9.25391C49.8809 8.93359 49.4453 8.49805 49.125 7.94727C48.8047 7.39648 48.6445 6.79688 48.6445 6.14844C48.6445 5.5 48.8047 4.90039 49.125 4.34961C49.4453 3.79883 49.8809 3.36328 50.4316 3.04297C50.9824 2.72266 51.582 2.5625 52.2305 2.5625C52.8359 2.5625 53.3984 2.70312 53.918 2.98438C54.4414 3.26562 54.8672 3.64844 55.1953 4.13281ZM55.8984 3.66406L55.5469 3.89258C55.1797 3.35352 54.7031 2.92773 54.1172 2.61523C53.5352 2.29883 52.9062 2.14062 52.2305 2.14062C51.6875 2.14062 51.168 2.24609 50.6719 2.45703C50.1758 2.66797 49.748 2.95312 49.3887 3.3125C49.0332 3.66797 48.75 4.09375 48.5391 4.58984C48.3281 5.08594 48.2227 5.60547 48.2227 6.14844C48.2227 6.69141 48.3281 7.21094 48.5391 7.70703C48.75 8.20312 49.0332 8.63086 49.3887 8.99023C49.748 9.3457 50.1758 9.62891 50.6719 9.83984C51.168 10.0508 51.6875 10.1562 52.2305 10.1562C52.9102 10.1562 53.541 9.99805 54.123 9.68164C54.7051 9.36523 55.1797 8.9375 55.5469 8.39844L55.8867 8.65039C55.4805 9.24414 54.9551 9.71484 54.3105 10.0625C53.6699 10.4062 52.9766 10.5781 52.2305 10.5781C51.4297 10.5781 50.6895 10.3809 50.0098 9.98633C49.3301 9.58789 48.791 9.04883 48.3926 8.36914C47.998 7.68945 47.8008 6.94922 47.8008 6.14844C47.8008 5.34766 47.998 4.60742 48.3926 3.92773C48.791 3.24805 49.3301 2.71094 50.0098 2.31641C50.6895 1.91797 51.4297 1.71875 52.2305 1.71875C52.9805 1.71875 53.6777 1.89453 54.3223 2.24609C54.9668 2.59375 55.4922 3.06641 55.8984 3.66406ZM56.5898 3.18359L56.2383 3.41211C55.793 2.75977 55.2168 2.24414 54.5098 1.86523C53.8066 1.48633 53.0469 1.29688 52.2305 1.29688C51.5742 1.29688 50.9453 1.42578 50.3438 1.68359C49.7461 1.9375 49.2305 2.28125 48.7969 2.71484C48.3633 3.14844 48.0176 3.66602 47.7598 4.26758C47.5059 4.86523 47.3789 5.49219 47.3789 6.14844C47.3789 6.80469 47.5059 7.43359 47.7598 8.03516C48.0176 8.63281 48.3633 9.14844 48.7969 9.58203C49.2305 10.0156 49.7461 10.3613 50.3438 10.6191C50.9453 10.873 51.5742 11 52.2305 11C53.0469 11 53.8086 10.8086 54.5156 10.4258C55.2227 10.043 55.7988 9.52539 56.2441 8.87305L56.584 9.13086C56.0996 9.83398 55.4746 10.3926 54.709 10.8066C53.9434 11.2168 53.1172 11.4219 52.2305 11.4219C51.5156 11.4219 50.832 11.2812 50.1797 11C49.5312 10.7227 48.9707 10.3496 48.498 9.88086C48.0293 9.4082 47.6543 8.84766 47.373 8.19922C47.0957 7.54688 46.957 6.86328 46.957 6.14844C46.957 5.43359 47.0957 4.75195 47.373 4.10352C47.6543 3.45117 48.0293 2.89062 48.498 2.42188C48.9707 1.94922 49.5312 1.57422 50.1797 1.29688C50.832 1.01562 51.5156 0.875 52.2305 0.875C53.1211 0.875 53.9492 1.08203 54.7148 1.49609C55.4805 1.91016 56.1055 2.47266 56.5898 3.18359ZM61.5938 8.15234L61.7637 7.73047H63.2051L63.375 8.15234H61.5938ZM61.2656 8.99609L61.4297 8.57422H63.5332L63.7148 8.99609H61.2656ZM60.9375 9.83984L61.1016 9.41797H63.8672L64.043 9.83984H60.9375ZM57.5098 11H57.0527L60.8906 1.29688H61.3477L65.1797 11H64.7285L61.1191 1.86523L57.5098 11ZM61.1719 2.86719L61.4121 3.40625L58.4121 11H57.9609L61.1719 2.86719ZM61.6406 3.98047L61.8633 4.56055L59.3262 11H58.8691L61.6406 3.98047ZM62.0859 5.14062L62.3086 5.73242L60.2285 11H59.7773L62.0859 5.14062ZM67.9043 11H67.4473L63.6152 1.29688H64.0664L67.9043 11ZM63.1582 1.29688L66.9961 11H66.5449L62.707 1.29688H63.1582ZM62.25 1.29688L66.0879 11H65.6309L61.7988 1.29688H62.25ZM68.6426 1.29688H69.0645V11H68.6426V1.29688ZM71.1738 1.29688H71.5957V8.89062H74.9707V9.3125H71.5957V9.73438H74.9707V10.1562H71.5957V10.5781H74.9707V11H71.1738V1.29688ZM70.3301 1.29688H70.752V11H70.3301V1.29688ZM69.4863 1.29688H69.9082V11H69.4863V1.29688ZM75.9082 1.29688H76.3301V11H75.9082V1.29688ZM78.4395 1.29688H78.8613V8.89062H82.2363V9.3125H78.8613V9.73438H82.2363V10.1562H78.8613V10.5781H82.2363V11H78.4395V1.29688ZM77.5957 1.29688H78.0176V11H77.5957V1.29688ZM76.752 1.29688H77.1738V11H76.752V1.29688Z" fill="#C6C031"/>
</svg>
