<svg width="92" height="12" viewBox="0 0 92 12" fill="none" xmlns="http://www.w3.org/2000/svg">
<path d="M7.86914 4.61328L7.52344 4.8418C7.3125 4.5293 7.03711 4.2832 6.69727 4.10352C6.36133 3.91992 5.99609 3.82812 5.60156 3.82812C4.96094 3.82812 4.41406 4.05469 3.96094 4.50781C3.50781 4.96094 3.28125 5.50781 3.28125 6.14844C3.28125 6.78906 3.50781 7.33594 3.96094 7.78906C4.41406 8.24219 4.96094 8.46875 5.60156 8.46875C5.99609 8.46875 6.36133 8.37695 6.69727 8.19336C7.03711 8.00977 7.3125 7.76172 7.52344 7.44922L7.86328 7.69531C7.61328 8.0625 7.28906 8.35352 6.89062 8.56836C6.49219 8.7832 6.0625 8.89062 5.60156 8.89062C5.23047 8.89062 4.875 8.81836 4.53516 8.67383C4.19922 8.5293 3.9082 8.33398 3.66211 8.08789C3.41602 7.8418 3.2207 7.55078 3.07617 7.21484C2.93164 6.875 2.85938 6.51953 2.85938 6.14844C2.85938 5.77734 2.93164 5.42383 3.07617 5.08789C3.2207 4.74805 3.41602 4.45508 3.66211 4.20898C3.9082 3.96289 4.19922 3.76758 4.53516 3.62305C4.875 3.47852 5.23047 3.40625 5.60156 3.40625C6.06641 3.40625 6.49805 3.51562 6.89648 3.73438C7.29492 3.94922 7.61914 4.24219 7.86914 4.61328ZM8.56641 4.13281L8.21484 4.36133C7.92578 3.93945 7.55078 3.60547 7.08984 3.35938C6.63281 3.10938 6.13672 2.98438 5.60156 2.98438C5.02734 2.98438 4.49805 3.12695 4.01367 3.41211C3.5293 3.69336 3.14453 4.07617 2.85938 4.56055C2.57812 5.04492 2.4375 5.57422 2.4375 6.14844C2.4375 6.72266 2.57812 7.25195 2.85938 7.73633C3.14453 8.2207 3.5293 8.60547 4.01367 8.89062C4.49805 9.17188 5.02734 9.3125 5.60156 9.3125C6.13672 9.3125 6.63477 9.1875 7.0957 8.9375C7.55664 8.6875 7.93164 8.34961 8.2207 7.92383L8.56641 8.16406C8.23828 8.64844 7.8125 9.03125 7.28906 9.3125C6.76953 9.59375 6.20703 9.73438 5.60156 9.73438C4.95312 9.73438 4.35352 9.57422 3.80273 9.25391C3.25195 8.93359 2.81641 8.49805 2.49609 7.94727C2.17578 7.39648 2.01562 6.79688 2.01562 6.14844C2.01562 5.5 2.17578 4.90039 2.49609 4.34961C2.81641 3.79883 3.25195 3.36328 3.80273 3.04297C4.35352 2.72266 4.95312 2.5625 5.60156 2.5625C6.20703 2.5625 6.76953 2.70312 7.28906 2.98438C7.8125 3.26562 8.23828 3.64844 8.56641 4.13281ZM9.26953 3.66406L8.91797 3.89258C8.55078 3.35352 8.07422 2.92773 7.48828 2.61523C6.90625 2.29883 6.27734 2.14062 5.60156 2.14062C5.05859 2.14062 4.53906 2.24609 4.04297 2.45703C3.54688 2.66797 3.11914 2.95312 2.75977 3.3125C2.4043 3.66797 2.12109 4.09375 1.91016 4.58984C1.69922 5.08594 1.59375 5.60547 1.59375 6.14844C1.59375 6.69141 1.69922 7.21094 1.91016 7.70703C2.12109 8.20312 2.4043 8.63086 2.75977 8.99023C3.11914 9.3457 3.54688 9.62891 4.04297 9.83984C4.53906 10.0508 5.05859 10.1562 5.60156 10.1562C6.28125 10.1562 6.91211 9.99805 7.49414 9.68164C8.07617 9.36523 8.55078 8.9375 8.91797 8.39844L9.25781 8.65039C8.85156 9.24414 8.32617 9.71484 7.68164 10.0625C7.04102 10.4062 6.34766 10.5781 5.60156 10.5781C4.80078 10.5781 4.06055 10.3809 3.38086 9.98633C2.70117 9.58789 2.16211 9.04883 1.76367 8.36914C1.36914 7.68945 1.17188 6.94922 1.17188 6.14844C1.17188 5.34766 1.36914 4.60742 1.76367 3.92773C2.16211 3.24805 2.70117 2.71094 3.38086 2.31641C4.06055 1.91797 4.80078 1.71875 5.60156 1.71875C6.35156 1.71875 7.04883 1.89453 7.69336 2.24609C8.33789 2.59375 8.86328 3.06641 9.26953 3.66406ZM9.96094 3.18359L9.60938 3.41211C9.16406 2.75977 8.58789 2.24414 7.88086 1.86523C7.17773 1.48633 6.41797 1.29688 5.60156 1.29688C4.94531 1.29688 4.31641 1.42578 3.71484 1.68359C3.11719 1.9375 2.60156 2.28125 2.16797 2.71484C1.73438 3.14844 1.38867 3.66602 1.13086 4.26758C0.876953 4.86523 0.75 5.49219 0.75 6.14844C0.75 6.80469 0.876953 7.43359 1.13086 8.03516C1.38867 8.63281 1.73438 9.14844 2.16797 9.58203C2.60156 10.0156 3.11719 10.3613 3.71484 10.6191C4.31641 10.873 4.94531 11 5.60156 11C6.41797 11 7.17969 10.8086 7.88672 10.4258C8.59375 10.043 9.16992 9.52539 9.61523 8.87305L9.95508 9.13086C9.4707 9.83398 8.8457 10.3926 8.08008 10.8066C7.31445 11.2168 6.48828 11.4219 5.60156 11.4219C4.88672 11.4219 4.20312 11.2812 3.55078 11C2.90234 10.7227 2.3418 10.3496 1.86914 9.88086C1.40039 9.4082 1.02539 8.84766 0.744141 8.19922C0.466797 7.54688 0.328125 6.86328 0.328125 6.14844C0.328125 5.43359 0.466797 4.75195 0.744141 4.10352C1.02539 3.45117 1.40039 2.89062 1.86914 2.42188C2.3418 1.94922 2.90234 1.57422 3.55078 1.29688C4.20312 1.01562 4.88672 0.875 5.60156 0.875C6.49219 0.875 7.32031 1.08203 8.08594 1.49609C8.85156 1.91016 9.47656 2.47266 9.96094 3.18359ZM15.1629 6.17188H17.7059C18.0926 6.17188 18.4187 6.04688 18.6844 5.79688C18.9539 5.54688 19.0887 5.19141 19.0887 4.73047C19.0887 4.39062 18.948 4.08594 18.6668 3.81641C18.3855 3.54297 18.0652 3.40625 17.7059 3.40625H14.0848V11H13.6629V2.98438H17.7059C18.1824 2.98438 18.6023 3.16211 18.9656 3.51758C19.3289 3.86914 19.5105 4.27344 19.5105 4.73047C19.5105 5.29297 19.3348 5.74414 18.9832 6.08398C18.6316 6.42383 18.2059 6.59375 17.7059 6.59375H15.1629V6.17188ZM15.1629 7.01562H17.7059C18.3152 7.01562 18.8387 6.80273 19.2762 6.37695C19.7137 5.94727 19.9324 5.39844 19.9324 4.73047C19.9324 4.15625 19.7078 3.65234 19.2586 3.21875C18.8133 2.78125 18.2957 2.5625 17.7059 2.5625H13.241V11H12.8191V2.14062H17.7059C18.1707 2.14062 18.6062 2.25977 19.0125 2.49805C19.4227 2.73633 19.7488 3.05664 19.991 3.45898C20.2332 3.85742 20.3543 4.28125 20.3543 4.73047C20.3543 5.5 20.0926 6.14453 19.5691 6.66406C19.0496 7.17969 18.4285 7.4375 17.7059 7.4375H15.1629V7.01562ZM15.1629 7.85938H17.7059C18.2527 7.85938 18.7605 7.72461 19.2293 7.45508C19.698 7.18555 20.073 6.81055 20.3543 6.33008C20.6355 5.8457 20.7762 5.3125 20.7762 4.73047C20.7762 4.20312 20.6355 3.70898 20.3543 3.24805C20.077 2.7832 19.702 2.41211 19.2293 2.13477C18.7566 1.85742 18.2488 1.71875 17.7059 1.71875H12.3973V11H11.9754V1.29688H17.7059C18.3191 1.29688 18.8953 1.45508 19.4344 1.77148C19.9734 2.08398 20.4012 2.50586 20.7176 3.03711C21.0379 3.56445 21.198 4.12891 21.198 4.73047C21.198 5.42578 21.0477 6.03711 20.7469 6.56445C20.45 7.0918 20.0457 7.50391 19.534 7.80078L20.6238 11H20.1785L19.1355 8C18.9793 8.0625 18.8602 8.10547 18.7781 8.12891L19.7566 11H19.3113L18.3562 8.22852C18.3211 8.23633 18.1961 8.25 17.9812 8.26953L18.8895 11H18.4441L17.5477 8.28125H17.1668L18.0223 11H17.577L16.7156 8.28125H15.1629V7.85938ZM14.9285 11H14.5066V3.82812H17.7059C17.9676 3.82812 18.1922 3.91797 18.3797 4.09766C18.5711 4.27344 18.6668 4.48438 18.6668 4.73047C18.6668 5.41016 18.3465 5.75 17.7059 5.75H15.1629V5.32812H17.7059C17.8738 5.32812 18.0047 5.28516 18.0984 5.19922C18.1961 5.10938 18.2449 4.95312 18.2449 4.73047C18.2449 4.59375 18.1922 4.48047 18.0867 4.39062C17.9852 4.29688 17.8582 4.25 17.7059 4.25H14.9285V11ZM25.4039 4.50781C24.9508 4.96094 24.7242 5.50781 24.7242 6.14844C24.7242 6.78906 24.9508 7.33594 25.4039 7.78906C25.857 8.24219 26.4039 8.46875 27.0445 8.46875C27.6852 8.46875 28.232 8.24219 28.6852 7.78906C29.1383 7.33594 29.3648 6.78906 29.3648 6.14844C29.3648 5.50781 29.1383 4.96094 28.6852 4.50781C28.232 4.05469 27.6852 3.82812 27.0445 3.82812C26.4039 3.82812 25.857 4.05469 25.4039 4.50781ZM24.5191 7.21484C24.3746 6.875 24.3023 6.51953 24.3023 6.14844C24.3023 5.77734 24.3746 5.42383 24.5191 5.08789C24.6637 4.74805 24.859 4.45508 25.1051 4.20898C25.3512 3.96289 25.6422 3.76758 25.9781 3.62305C26.318 3.47852 26.6734 3.40625 27.0445 3.40625C27.4156 3.40625 27.7691 3.47852 28.1051 3.62305C28.4449 3.76758 28.7379 3.96289 28.984 4.20898C29.2301 4.45508 29.4254 4.74805 29.5699 5.08789C29.7145 5.42383 29.7867 5.77734 29.7867 6.14844C29.7867 6.51953 29.7145 6.875 29.5699 7.21484C29.4254 7.55078 29.2301 7.8418 28.984 8.08789C28.7379 8.33398 28.4449 8.5293 28.1051 8.67383C27.7691 8.81836 27.4156 8.89062 27.0445 8.89062C26.6734 8.89062 26.318 8.81836 25.9781 8.67383C25.6422 8.5293 25.3512 8.33398 25.1051 8.08789C24.859 7.8418 24.6637 7.55078 24.5191 7.21484ZM24.3023 4.56055C24.0211 5.04492 23.8805 5.57422 23.8805 6.14844C23.8805 6.72266 24.0211 7.25195 24.3023 7.73633C24.5875 8.2207 24.9723 8.60547 25.4566 8.89062C25.941 9.17188 26.4703 9.3125 27.0445 9.3125C27.6187 9.3125 28.148 9.17188 28.6324 8.89062C29.1168 8.60547 29.4996 8.2207 29.7809 7.73633C30.066 7.25195 30.2086 6.72266 30.2086 6.14844C30.2086 5.57422 30.066 5.04492 29.7809 4.56055C29.4996 4.07617 29.1168 3.69336 28.6324 3.41211C28.148 3.12695 27.6187 2.98438 27.0445 2.98438C26.4703 2.98438 25.941 3.12695 25.4566 3.41211C24.9723 3.69336 24.5875 4.07617 24.3023 4.56055ZM23.9391 7.94727C23.6187 7.39648 23.4586 6.79688 23.4586 6.14844C23.4586 5.5 23.6187 4.90039 23.9391 4.34961C24.2594 3.79883 24.6949 3.36328 25.2457 3.04297C25.7965 2.72266 26.3961 2.5625 27.0445 2.5625C27.693 2.5625 28.2926 2.72266 28.8434 3.04297C29.3941 3.36328 29.8297 3.79883 30.15 4.34961C30.4703 4.90039 30.6305 5.5 30.6305 6.14844C30.6305 6.79688 30.4703 7.39648 30.15 7.94727C29.8297 8.49805 29.3941 8.93359 28.8434 9.25391C28.2926 9.57422 27.693 9.73438 27.0445 9.73438C26.3961 9.73438 25.7965 9.57422 25.2457 9.25391C24.6949 8.93359 24.2594 8.49805 23.9391 7.94727ZM23.3531 4.58984C23.1422 5.08594 23.0367 5.60547 23.0367 6.14844C23.0367 6.69141 23.1422 7.21094 23.3531 7.70703C23.5641 8.20312 23.8473 8.63086 24.2027 8.99023C24.5621 9.3457 24.9898 9.62891 25.4859 9.83984C25.982 10.0508 26.5016 10.1562 27.0445 10.1562C27.5875 10.1562 28.107 10.0508 28.6031 9.83984C29.0992 9.62891 29.525 9.3457 29.8805 8.99023C30.2398 8.63086 30.525 8.20312 30.7359 7.70703C30.9469 7.21094 31.0523 6.69141 31.0523 6.14844C31.0523 5.60547 30.9469 5.08594 30.7359 4.58984C30.525 4.09375 30.2398 3.66797 29.8805 3.3125C29.525 2.95312 29.0992 2.66797 28.6031 2.45703C28.107 2.24609 27.5875 2.14062 27.0445 2.14062C26.5016 2.14062 25.982 2.24609 25.4859 2.45703C24.9898 2.66797 24.5621 2.95312 24.2027 3.3125C23.8473 3.66797 23.5641 4.09375 23.3531 4.58984ZM23.2066 8.36914C22.8121 7.68945 22.6148 6.94922 22.6148 6.14844C22.6148 5.34766 22.8121 4.60742 23.2066 3.92773C23.6051 3.24805 24.1441 2.71094 24.8238 2.31641C25.5035 1.91797 26.2437 1.71875 27.0445 1.71875C27.8453 1.71875 28.5855 1.91797 29.2652 2.31641C29.9449 2.71094 30.482 3.24805 30.8766 3.92773C31.275 4.60742 31.4742 5.34766 31.4742 6.14844C31.4742 6.94922 31.275 7.68945 30.8766 8.36914C30.482 9.04883 29.9449 9.58789 29.2652 9.98633C28.5855 10.3809 27.8453 10.5781 27.0445 10.5781C26.2437 10.5781 25.5035 10.3809 24.8238 9.98633C24.1441 9.58789 23.6051 9.04883 23.2066 8.36914ZM22.5738 4.26758C22.3199 4.86523 22.193 5.49219 22.193 6.14844C22.193 6.80469 22.3199 7.43359 22.5738 8.03516C22.8316 8.63281 23.1773 9.14844 23.6109 9.58203C24.0445 10.0156 24.5602 10.3613 25.1578 10.6191C25.7594 10.873 26.3883 11 27.0445 11C27.7008 11 28.3277 10.873 28.9254 10.6191C29.527 10.3613 30.0445 10.0156 30.4781 9.58203C30.9117 9.14844 31.2555 8.63281 31.5094 8.03516C31.7672 7.43359 31.8961 6.80469 31.8961 6.14844C31.8961 5.49219 31.7672 4.86523 31.5094 4.26758C31.2555 3.66602 30.9117 3.14844 30.4781 2.71484C30.0445 2.28125 29.527 1.9375 28.9254 1.68359C28.3277 1.42578 27.7008 1.29688 27.0445 1.29688C26.3883 1.29688 25.7594 1.42578 25.1578 1.68359C24.5602 1.9375 24.0445 2.28125 23.6109 2.71484C23.1773 3.14844 22.8316 3.66602 22.5738 4.26758ZM22.1871 8.19922C21.9098 7.54688 21.7711 6.86328 21.7711 6.14844C21.7711 5.43359 21.9098 4.75195 22.1871 4.10352C22.4684 3.45117 22.8434 2.89062 23.3121 2.42188C23.7848 1.94922 24.3453 1.57422 24.9937 1.29688C25.6461 1.01562 26.3297 0.875 27.0445 0.875C27.7594 0.875 28.441 1.01562 29.0895 1.29688C29.7418 1.57422 30.3023 1.94922 30.7711 2.42188C31.2437 2.89062 31.6187 3.45117 31.8961 4.10352C32.1773 4.75195 32.318 5.43359 32.318 6.14844C32.318 6.86328 32.1773 7.54688 31.8961 8.19922C31.6187 8.84766 31.2437 9.4082 30.7711 9.88086C30.3023 10.3496 29.7418 10.7227 29.0895 11C28.441 11.2812 27.7594 11.4219 27.0445 11.4219C26.3297 11.4219 25.6461 11.2812 24.9937 11C24.3453 10.7227 23.7848 10.3496 23.3121 9.88086C22.8434 9.4082 22.4684 8.84766 22.1871 8.19922ZM38.3109 5.09375H37.602C37.3012 5.09375 37.0844 5.01758 36.9516 4.86523C36.8187 4.70898 36.7523 4.50391 36.7523 4.25C36.7523 3.6875 37.1723 3.40625 38.0121 3.40625C38.8012 3.40625 39.3949 3.52344 39.7934 3.75781L39.4535 4.01562C39.1801 3.89062 38.6996 3.82812 38.0121 3.82812C37.6762 3.82812 37.4496 3.86523 37.3324 3.93945C37.2191 4.01367 37.1625 4.11719 37.1625 4.25C37.1625 4.38281 37.1937 4.48633 37.2562 4.56055C37.3187 4.63477 37.434 4.67188 37.602 4.67188H38.3285C38.8559 4.67188 39.3305 4.76172 39.7523 4.94141C40.1781 5.12109 40.5277 5.36719 40.8012 5.67969C41.0746 5.98828 41.2836 6.3457 41.4281 6.75195C41.5727 7.1543 41.6449 7.58594 41.6449 8.04688C41.6449 8.42188 41.5922 8.77734 41.4867 9.11328C41.3812 9.44922 41.2211 9.75781 41.0062 10.0391C40.7953 10.3203 40.5395 10.5645 40.2387 10.7715C39.9418 10.9746 39.5863 11.1328 39.1723 11.2461C38.7621 11.3633 38.3168 11.4219 37.8363 11.4219C37.0824 11.4219 36.3754 11.3066 35.7152 11.0762C35.059 10.8496 34.5121 10.5312 34.0746 10.1211L34.4145 9.86914C34.8129 10.2285 35.3109 10.5078 35.9086 10.707C36.5102 10.9023 37.1527 11 37.8363 11C38.3715 11 38.8539 10.9238 39.2836 10.7715C39.7172 10.6152 40.0727 10.4023 40.35 10.1328C40.6312 9.86328 40.8461 9.55078 40.9945 9.19531C41.1469 8.83984 41.223 8.45703 41.223 8.04688C41.223 7.50391 41.1137 7.01367 40.8949 6.57617C40.6762 6.13477 40.3422 5.77734 39.893 5.50391C39.4477 5.23047 38.9203 5.09375 38.3109 5.09375ZM37.602 5.51562H38.2699C39.0629 5.51562 39.682 5.75781 40.1273 6.24219C40.5766 6.72656 40.8012 7.32812 40.8012 8.04688C40.8012 8.77734 40.5414 9.38281 40.0219 9.86328C39.5023 10.3398 38.7738 10.5781 37.8363 10.5781C37.2113 10.5781 36.6273 10.4922 36.0844 10.3203C35.5414 10.1484 35.0902 9.90625 34.7309 9.59375L35.059 9.33008C35.3793 9.5918 35.7816 9.79492 36.266 9.93945C36.7543 10.084 37.2777 10.1562 37.8363 10.1562C38.6605 10.1562 39.2895 9.95898 39.723 9.56445C40.1605 9.16992 40.3793 8.66406 40.3793 8.04688C40.3793 7.4375 40.1957 6.93359 39.8285 6.53516C39.4652 6.13672 38.9437 5.9375 38.2641 5.9375H37.602C37.0316 5.9375 36.6039 5.78125 36.3187 5.46875C36.0336 5.15625 35.891 4.75 35.891 4.25C35.891 3.75 36.0668 3.34375 36.4184 3.03125C36.7738 2.71875 37.3051 2.5625 38.0121 2.5625C38.5082 2.5625 38.9691 2.62109 39.3949 2.73828C39.8207 2.85156 40.1723 3.01562 40.4496 3.23047L40.1156 3.48828C39.6273 3.15234 38.9262 2.98438 38.0121 2.98438C37.4223 2.98438 36.9906 3.10156 36.7172 3.33594C36.4477 3.56641 36.3129 3.87109 36.3129 4.25C36.3129 4.63281 36.4125 4.93945 36.6117 5.16992C36.8148 5.40039 37.1449 5.51562 37.602 5.51562ZM37.602 6.35938H38.2465C38.8168 6.35938 39.2445 6.51758 39.5297 6.83398C39.8148 7.15039 39.9574 7.55469 39.9574 8.04688C39.9574 8.54688 39.7797 8.95312 39.4242 9.26562C39.0727 9.57812 38.5434 9.73438 37.8363 9.73438C37.3402 9.73438 36.8773 9.67773 36.4477 9.56445C36.0219 9.44727 35.6703 9.28125 35.393 9.06641L35.727 8.80859C36.2152 9.14453 36.9184 9.3125 37.8363 9.3125C38.4262 9.3125 38.8559 9.19727 39.1254 8.9668C39.3988 8.73242 39.5355 8.42578 39.5355 8.04688C39.5355 7.66797 39.434 7.36328 39.2309 7.13281C39.0277 6.89844 38.6977 6.78125 38.2406 6.78125H37.602C36.8012 6.78125 36.1742 6.54297 35.7211 6.06641C35.2719 5.58594 35.0473 4.98047 35.0473 4.25C35.0473 3.51953 35.307 2.91602 35.8266 2.43945C36.3461 1.95898 37.0746 1.71875 38.0121 1.71875C38.6371 1.71875 39.2191 1.80469 39.7582 1.97656C40.3012 2.14844 40.7523 2.39062 41.1117 2.70312L40.7836 2.9668C40.4633 2.70508 40.0609 2.50195 39.5766 2.35742C39.0922 2.21289 38.5707 2.14062 38.0121 2.14062C37.1879 2.14062 36.557 2.33789 36.1195 2.73242C35.6859 3.12695 35.4691 3.63281 35.4691 4.25C35.4691 4.86328 35.6527 5.36914 36.0199 5.76758C36.3871 6.16211 36.9145 6.35938 37.602 6.35938ZM37.602 7.20312H38.2465C38.5473 7.20312 38.7641 7.28125 38.8969 7.4375C39.0297 7.59375 39.0961 7.79688 39.0961 8.04688C39.0961 8.60938 38.6762 8.89062 37.8363 8.89062C37.0434 8.89062 36.4477 8.77344 36.0492 8.53906L36.3891 8.28125C36.6625 8.40625 37.1449 8.46875 37.8363 8.46875C38.1723 8.46875 38.3969 8.43164 38.5102 8.35742C38.6273 8.2832 38.6859 8.17969 38.6859 8.04688C38.6859 7.91797 38.6527 7.81641 38.5863 7.74219C38.5238 7.66406 38.4066 7.625 38.2348 7.625H37.602C37.0629 7.625 36.5746 7.53711 36.1371 7.36133C35.7035 7.18555 35.3461 6.94336 35.0648 6.63477C34.7875 6.32617 34.5746 5.96875 34.4262 5.5625C34.2777 5.15625 34.2035 4.71875 34.2035 4.25C34.2035 3.875 34.2562 3.51953 34.3617 3.18359C34.4672 2.84766 34.6254 2.53906 34.8363 2.25781C35.0512 1.97656 35.307 1.73438 35.6039 1.53125C35.9047 1.32422 36.2602 1.16406 36.6703 1.05078C37.0844 0.933594 37.5316 0.875 38.0121 0.875C38.766 0.875 39.4711 0.990234 40.1273 1.2207C40.7836 1.44727 41.3305 1.76562 41.768 2.17578L41.4281 2.42773C41.0297 2.06836 40.5316 1.79102 39.934 1.5957C39.3363 1.39648 38.6957 1.29688 38.0121 1.29688C37.477 1.29688 36.9926 1.375 36.559 1.53125C36.1293 1.68359 35.7738 1.89453 35.4926 2.16406C35.2152 2.43359 35.0004 2.74609 34.848 3.10156C34.6996 3.45703 34.6254 3.83984 34.6254 4.25C34.6254 4.80078 34.7367 5.29688 34.9594 5.73828C35.182 6.17969 35.5219 6.53516 35.9789 6.80469C36.4359 7.07031 36.977 7.20312 37.602 7.20312ZM47.7023 5.09375H46.9934C46.6926 5.09375 46.4758 5.01758 46.343 4.86523C46.2102 4.70898 46.1437 4.50391 46.1437 4.25C46.1437 3.6875 46.5637 3.40625 47.4035 3.40625C48.1926 3.40625 48.7863 3.52344 49.1848 3.75781L48.8449 4.01562C48.5715 3.89062 48.091 3.82812 47.4035 3.82812C47.0676 3.82812 46.841 3.86523 46.7238 3.93945C46.6105 4.01367 46.5539 4.11719 46.5539 4.25C46.5539 4.38281 46.5852 4.48633 46.6477 4.56055C46.7102 4.63477 46.8254 4.67188 46.9934 4.67188H47.7199C48.2473 4.67188 48.7219 4.76172 49.1437 4.94141C49.5695 5.12109 49.9191 5.36719 50.1926 5.67969C50.466 5.98828 50.675 6.3457 50.8195 6.75195C50.9641 7.1543 51.0363 7.58594 51.0363 8.04688C51.0363 8.42188 50.9836 8.77734 50.8781 9.11328C50.7727 9.44922 50.6125 9.75781 50.3977 10.0391C50.1867 10.3203 49.9309 10.5645 49.6301 10.7715C49.3332 10.9746 48.9777 11.1328 48.5637 11.2461C48.1535 11.3633 47.7082 11.4219 47.2277 11.4219C46.4738 11.4219 45.7668 11.3066 45.1066 11.0762C44.4504 10.8496 43.9035 10.5312 43.466 10.1211L43.8059 9.86914C44.2043 10.2285 44.7023 10.5078 45.3 10.707C45.9016 10.9023 46.5441 11 47.2277 11C47.7629 11 48.2453 10.9238 48.675 10.7715C49.1086 10.6152 49.4641 10.4023 49.7414 10.1328C50.0227 9.86328 50.2375 9.55078 50.3859 9.19531C50.5383 8.83984 50.6145 8.45703 50.6145 8.04688C50.6145 7.50391 50.5051 7.01367 50.2863 6.57617C50.0676 6.13477 49.7336 5.77734 49.2844 5.50391C48.8391 5.23047 48.3117 5.09375 47.7023 5.09375ZM46.9934 5.51562H47.6613C48.4543 5.51562 49.0734 5.75781 49.5187 6.24219C49.968 6.72656 50.1926 7.32812 50.1926 8.04688C50.1926 8.77734 49.9328 9.38281 49.4133 9.86328C48.8937 10.3398 48.1652 10.5781 47.2277 10.5781C46.6027 10.5781 46.0187 10.4922 45.4758 10.3203C44.9328 10.1484 44.4816 9.90625 44.1223 9.59375L44.4504 9.33008C44.7707 9.5918 45.173 9.79492 45.6574 9.93945C46.1457 10.084 46.6691 10.1562 47.2277 10.1562C48.052 10.1562 48.6809 9.95898 49.1145 9.56445C49.552 9.16992 49.7707 8.66406 49.7707 8.04688C49.7707 7.4375 49.5871 6.93359 49.2199 6.53516C48.8566 6.13672 48.3352 5.9375 47.6555 5.9375H46.9934C46.423 5.9375 45.9953 5.78125 45.7102 5.46875C45.425 5.15625 45.2824 4.75 45.2824 4.25C45.2824 3.75 45.4582 3.34375 45.8098 3.03125C46.1652 2.71875 46.6965 2.5625 47.4035 2.5625C47.8996 2.5625 48.3605 2.62109 48.7863 2.73828C49.2121 2.85156 49.5637 3.01562 49.841 3.23047L49.507 3.48828C49.0187 3.15234 48.3176 2.98438 47.4035 2.98438C46.8137 2.98438 46.382 3.10156 46.1086 3.33594C45.8391 3.56641 45.7043 3.87109 45.7043 4.25C45.7043 4.63281 45.8039 4.93945 46.0031 5.16992C46.2062 5.40039 46.5363 5.51562 46.9934 5.51562ZM46.9934 6.35938H47.6379C48.2082 6.35938 48.6359 6.51758 48.9211 6.83398C49.2062 7.15039 49.3488 7.55469 49.3488 8.04688C49.3488 8.54688 49.1711 8.95312 48.8156 9.26562C48.4641 9.57812 47.9348 9.73438 47.2277 9.73438C46.7316 9.73438 46.2687 9.67773 45.8391 9.56445C45.4133 9.44727 45.0617 9.28125 44.7844 9.06641L45.1184 8.80859C45.6066 9.14453 46.3098 9.3125 47.2277 9.3125C47.8176 9.3125 48.2473 9.19727 48.5168 8.9668C48.7902 8.73242 48.927 8.42578 48.927 8.04688C48.927 7.66797 48.8254 7.36328 48.6223 7.13281C48.4191 6.89844 48.0891 6.78125 47.632 6.78125H46.9934C46.1926 6.78125 45.5656 6.54297 45.1125 6.06641C44.6633 5.58594 44.4387 4.98047 44.4387 4.25C44.4387 3.51953 44.6984 2.91602 45.218 2.43945C45.7375 1.95898 46.466 1.71875 47.4035 1.71875C48.0285 1.71875 48.6105 1.80469 49.1496 1.97656C49.6926 2.14844 50.1437 2.39062 50.5031 2.70312L50.175 2.9668C49.8547 2.70508 49.4523 2.50195 48.968 2.35742C48.4836 2.21289 47.9621 2.14062 47.4035 2.14062C46.5793 2.14062 45.9484 2.33789 45.5109 2.73242C45.0773 3.12695 44.8605 3.63281 44.8605 4.25C44.8605 4.86328 45.0441 5.36914 45.4113 5.76758C45.7785 6.16211 46.3059 6.35938 46.9934 6.35938ZM46.9934 7.20312H47.6379C47.9387 7.20312 48.1555 7.28125 48.2883 7.4375C48.4211 7.59375 48.4875 7.79688 48.4875 8.04688C48.4875 8.60938 48.0676 8.89062 47.2277 8.89062C46.4348 8.89062 45.8391 8.77344 45.4406 8.53906L45.7805 8.28125C46.0539 8.40625 46.5363 8.46875 47.2277 8.46875C47.5637 8.46875 47.7883 8.43164 47.9016 8.35742C48.0187 8.2832 48.0773 8.17969 48.0773 8.04688C48.0773 7.91797 48.0441 7.81641 47.9777 7.74219C47.9152 7.66406 47.798 7.625 47.6262 7.625H46.9934C46.4543 7.625 45.966 7.53711 45.5285 7.36133C45.0949 7.18555 44.7375 6.94336 44.4562 6.63477C44.1789 6.32617 43.966 5.96875 43.8176 5.5625C43.6691 5.15625 43.5949 4.71875 43.5949 4.25C43.5949 3.875 43.6477 3.51953 43.7531 3.18359C43.8586 2.84766 44.0168 2.53906 44.2277 2.25781C44.4426 1.97656 44.6984 1.73438 44.9953 1.53125C45.2961 1.32422 45.6516 1.16406 46.0617 1.05078C46.4758 0.933594 46.923 0.875 47.4035 0.875C48.1574 0.875 48.8625 0.990234 49.5187 1.2207C50.175 1.44727 50.7219 1.76562 51.1594 2.17578L50.8195 2.42773C50.4211 2.06836 49.923 1.79102 49.3254 1.5957C48.7277 1.39648 48.0871 1.29688 47.4035 1.29688C46.8684 1.29688 46.384 1.375 45.9504 1.53125C45.5207 1.68359 45.1652 1.89453 44.884 2.16406C44.6066 2.43359 44.3918 2.74609 44.2395 3.10156C44.091 3.45703 44.0168 3.83984 44.0168 4.25C44.0168 4.80078 44.1281 5.29688 44.3508 5.73828C44.5734 6.17969 44.9133 6.53516 45.3703 6.80469C45.8273 7.07031 46.3684 7.20312 46.9934 7.20312ZM60.498 4.61328L60.1523 4.8418C59.9414 4.5293 59.666 4.2832 59.3262 4.10352C58.9902 3.91992 58.625 3.82812 58.2305 3.82812C57.5898 3.82812 57.043 4.05469 56.5898 4.50781C56.1367 4.96094 55.9102 5.50781 55.9102 6.14844C55.9102 6.78906 56.1367 7.33594 56.5898 7.78906C57.043 8.24219 57.5898 8.46875 58.2305 8.46875C58.625 8.46875 58.9902 8.37695 59.3262 8.19336C59.666 8.00977 59.9414 7.76172 60.1523 7.44922L60.4922 7.69531C60.2422 8.0625 59.918 8.35352 59.5195 8.56836C59.1211 8.7832 58.6914 8.89062 58.2305 8.89062C57.8594 8.89062 57.5039 8.81836 57.1641 8.67383C56.8281 8.5293 56.5371 8.33398 56.291 8.08789C56.0449 7.8418 55.8496 7.55078 55.7051 7.21484C55.5605 6.875 55.4883 6.51953 55.4883 6.14844C55.4883 5.77734 55.5605 5.42383 55.7051 5.08789C55.8496 4.74805 56.0449 4.45508 56.291 4.20898C56.5371 3.96289 56.8281 3.76758 57.1641 3.62305C57.5039 3.47852 57.8594 3.40625 58.2305 3.40625C58.6953 3.40625 59.127 3.51562 59.5254 3.73438C59.9238 3.94922 60.248 4.24219 60.498 4.61328ZM61.1953 4.13281L60.8438 4.36133C60.5547 3.93945 60.1797 3.60547 59.7188 3.35938C59.2617 3.10938 58.7656 2.98438 58.2305 2.98438C57.6562 2.98438 57.127 3.12695 56.6426 3.41211C56.1582 3.69336 55.7734 4.07617 55.4883 4.56055C55.207 5.04492 55.0664 5.57422 55.0664 6.14844C55.0664 6.72266 55.207 7.25195 55.4883 7.73633C55.7734 8.2207 56.1582 8.60547 56.6426 8.89062C57.127 9.17188 57.6562 9.3125 58.2305 9.3125C58.7656 9.3125 59.2637 9.1875 59.7246 8.9375C60.1855 8.6875 60.5605 8.34961 60.8496 7.92383L61.1953 8.16406C60.8672 8.64844 60.4414 9.03125 59.918 9.3125C59.3984 9.59375 58.8359 9.73438 58.2305 9.73438C57.582 9.73438 56.9824 9.57422 56.4316 9.25391C55.8809 8.93359 55.4453 8.49805 55.125 7.94727C54.8047 7.39648 54.6445 6.79688 54.6445 6.14844C54.6445 5.5 54.8047 4.90039 55.125 4.34961C55.4453 3.79883 55.8809 3.36328 56.4316 3.04297C56.9824 2.72266 57.582 2.5625 58.2305 2.5625C58.8359 2.5625 59.3984 2.70312 59.918 2.98438C60.4414 3.26562 60.8672 3.64844 61.1953 4.13281ZM61.8984 3.66406L61.5469 3.89258C61.1797 3.35352 60.7031 2.92773 60.1172 2.61523C59.5352 2.29883 58.9062 2.14062 58.2305 2.14062C57.6875 2.14062 57.168 2.24609 56.6719 2.45703C56.1758 2.66797 55.748 2.95312 55.3887 3.3125C55.0332 3.66797 54.75 4.09375 54.5391 4.58984C54.3281 5.08594 54.2227 5.60547 54.2227 6.14844C54.2227 6.69141 54.3281 7.21094 54.5391 7.70703C54.75 8.20312 55.0332 8.63086 55.3887 8.99023C55.748 9.3457 56.1758 9.62891 56.6719 9.83984C57.168 10.0508 57.6875 10.1562 58.2305 10.1562C58.9102 10.1562 59.541 9.99805 60.123 9.68164C60.7051 9.36523 61.1797 8.9375 61.5469 8.39844L61.8867 8.65039C61.4805 9.24414 60.9551 9.71484 60.3105 10.0625C59.6699 10.4062 58.9766 10.5781 58.2305 10.5781C57.4297 10.5781 56.6895 10.3809 56.0098 9.98633C55.3301 9.58789 54.791 9.04883 54.3926 8.36914C53.998 7.68945 53.8008 6.94922 53.8008 6.14844C53.8008 5.34766 53.998 4.60742 54.3926 3.92773C54.791 3.24805 55.3301 2.71094 56.0098 2.31641C56.6895 1.91797 57.4297 1.71875 58.2305 1.71875C58.9805 1.71875 59.6777 1.89453 60.3223 2.24609C60.9668 2.59375 61.4922 3.06641 61.8984 3.66406ZM62.5898 3.18359L62.2383 3.41211C61.793 2.75977 61.2168 2.24414 60.5098 1.86523C59.8066 1.48633 59.0469 1.29688 58.2305 1.29688C57.5742 1.29688 56.9453 1.42578 56.3438 1.68359C55.7461 1.9375 55.2305 2.28125 54.7969 2.71484C54.3633 3.14844 54.0176 3.66602 53.7598 4.26758C53.5059 4.86523 53.3789 5.49219 53.3789 6.14844C53.3789 6.80469 53.5059 7.43359 53.7598 8.03516C54.0176 8.63281 54.3633 9.14844 54.7969 9.58203C55.2305 10.0156 55.7461 10.3613 56.3438 10.6191C56.9453 10.873 57.5742 11 58.2305 11C59.0469 11 59.8086 10.8086 60.5156 10.4258C61.2227 10.043 61.7988 9.52539 62.2441 8.87305L62.584 9.13086C62.0996 9.83398 61.4746 10.3926 60.709 10.8066C59.9434 11.2168 59.1172 11.4219 58.2305 11.4219C57.5156 11.4219 56.832 11.2812 56.1797 11C55.5312 10.7227 54.9707 10.3496 54.498 9.88086C54.0293 9.4082 53.6543 8.84766 53.373 8.19922C53.0957 7.54688 52.957 6.86328 52.957 6.14844C52.957 5.43359 53.0957 4.75195 53.373 4.10352C53.6543 3.45117 54.0293 2.89062 54.498 2.42188C54.9707 1.94922 55.5312 1.57422 56.1797 1.29688C56.832 1.01562 57.5156 0.875 58.2305 0.875C59.1211 0.875 59.9492 1.08203 60.7148 1.49609C61.4805 1.91016 62.1055 2.47266 62.5898 3.18359ZM68.7937 8.15234L68.9637 7.73047H70.4051L70.575 8.15234H68.7937ZM68.4656 8.99609L68.6297 8.57422H70.7332L70.9148 8.99609H68.4656ZM68.1375 9.83984L68.3016 9.41797H71.0672L71.243 9.83984H68.1375ZM64.7098 11H64.2527L68.0906 1.29688H68.5477L72.3797 11H71.9285L68.3191 1.86523L64.7098 11ZM68.3719 2.86719L68.6121 3.40625L65.6121 11H65.1609L68.3719 2.86719ZM68.8406 3.98047L69.0633 4.56055L66.5262 11H66.0691L68.8406 3.98047ZM69.2859 5.14062L69.5086 5.73242L67.4285 11H66.9773L69.2859 5.14062ZM75.1043 11H74.6473L70.8152 1.29688H71.2664L75.1043 11ZM70.3582 1.29688L74.1961 11H73.7449L69.907 1.29688H70.3582ZM69.45 1.29688L73.2879 11H72.8309L68.9988 1.29688H69.45ZM77.0426 1.29688H77.4645V11H77.0426V1.29688ZM79.5738 1.29688H79.9957V8.89062H83.3707V9.3125H79.9957V9.73438H83.3707V10.1562H79.9957V10.5781H83.3707V11H79.5738V1.29688ZM78.7301 1.29688H79.152V11H78.7301V1.29688ZM77.8863 1.29688H78.3082V11H77.8863V1.29688ZM85.5082 1.29688H85.9301V11H85.5082V1.29688ZM88.0395 1.29688H88.4613V8.89062H91.8363V9.3125H88.4613V9.73438H91.8363V10.1562H88.4613V10.5781H91.8363V11H88.0395V1.29688ZM87.1957 1.29688H87.6176V11H87.1957V1.29688ZM86.352 1.29688H86.7738V11H86.352V1.29688Z" fill="#C6C031"/>
</svg>
