<svg width="20" height="20" viewBox="0 0 20 20" fill="none" xmlns="http://www.w3.org/2000/svg">
<path d="M18.348 1.05573C18.0182 0.945554 17.7112 1.02523 17.5585 1.06957C17.3921 1.1179 17.1939 1.19531 16.9949 1.27298L2.86404 6.78748C2.64168 6.87422 2.42631 6.95823 2.26008 7.04043C2.11645 7.11145 1.81116 7.26952 1.64076 7.59753C1.45284 7.95924 1.45309 8.38987 1.64144 8.75137C1.81223 9.07917 2.1177 9.23688 2.26141 9.30773C2.42773 9.38973 2.64317 9.47348 2.86562 9.55996L6.79897 11.0896C7.09241 11.2037 7.23912 11.2608 7.38508 11.2643C7.5141 11.2674 7.64207 11.2405 7.75891 11.1857C7.8911 11.1237 8.00241 11.0124 8.22504 10.7897L12.2629 6.75189C12.5883 6.42645 13.116 6.42645 13.4414 6.75189C13.7668 7.07733 13.7668 7.60496 13.4414 7.9304L9.40355 11.9682C9.18093 12.1909 9.06961 12.3022 9.00762 12.4344C8.95283 12.5512 8.92592 12.6792 8.92901 12.8082C8.93252 12.9542 8.98957 13.1009 9.10369 13.3943L10.6333 17.3276C10.7198 17.5501 10.8035 17.7655 10.8855 17.9319C10.9564 18.0756 11.1141 18.381 11.4419 18.5518C11.8034 18.7402 12.234 18.7404 12.5958 18.5525C12.9238 18.3821 13.0818 18.0768 13.1528 17.9332C13.235 17.767 13.319 17.5516 13.4058 17.3293L18.9203 3.19832C18.998 2.9994 19.0754 2.80113 19.1237 2.63477C19.168 2.48211 19.2477 2.17506 19.1375 1.84526C19.0131 1.47263 18.7206 1.18021 18.348 1.05573Z" fill="#7950F2"/>
</svg>
