<svg width="324" height="324" viewBox="0 0 324 324" fill="none" xmlns="http://www.w3.org/2000/svg">
<rect width="324" height="324" fill="#020202"/>
<path d="M86.2156 143.094H79.994C79.8803 142.289 79.6483 141.574 79.2979 140.949C78.9476 140.314 78.4978 139.775 77.9485 139.33C77.3993 138.884 76.7648 138.544 76.0451 138.307C75.3349 138.07 74.5631 137.952 73.7298 137.952C72.2241 137.952 70.9125 138.326 69.7951 139.074C68.6777 139.812 67.8112 140.892 67.1957 142.312C66.5801 143.723 66.2724 145.437 66.2724 147.455C66.2724 149.528 66.5801 151.271 67.1957 152.682C67.8207 154.093 68.6919 155.158 69.8093 155.878C70.9267 156.598 72.2193 156.957 73.6871 156.957C74.511 156.957 75.2733 156.848 75.9741 156.631C76.6843 156.413 77.314 156.096 77.8633 155.679C78.4125 155.253 78.8671 154.737 79.2269 154.131C79.5962 153.525 79.8519 152.833 79.994 152.057L86.2156 152.085C86.0546 153.42 85.6521 154.708 85.0082 155.949C84.3737 157.18 83.5167 158.283 82.4371 159.259C81.3671 160.224 80.0887 160.991 78.6019 161.56C77.1246 162.118 75.4532 162.398 73.5877 162.398C70.993 162.398 68.6729 161.811 66.6275 160.636C64.5915 159.462 62.9817 157.762 61.7979 155.537C60.6237 153.312 60.0366 150.617 60.0366 147.455C60.0366 144.282 60.6332 141.583 61.8263 139.358C63.0195 137.133 64.6388 135.437 66.6843 134.273C68.7298 133.098 71.0309 132.511 73.5877 132.511C75.2733 132.511 76.8358 132.748 78.2752 133.222C79.7241 133.695 81.0072 134.386 82.1246 135.295C83.2421 136.195 84.1512 137.298 84.8519 138.605C85.5621 139.912 86.0167 141.408 86.2156 143.094ZM90.5124 162V140.182H96.3789V143.989H96.6062C97.0039 142.634 97.6715 141.612 98.609 140.92C99.5465 140.22 100.626 139.869 101.848 139.869C102.151 139.869 102.477 139.888 102.828 139.926C103.178 139.964 103.486 140.016 103.751 140.082V145.452C103.467 145.366 103.074 145.291 102.572 145.224C102.07 145.158 101.611 145.125 101.194 145.125C100.304 145.125 99.5086 145.319 98.8079 145.707C98.1166 146.086 97.5674 146.616 97.1602 147.298C96.7624 147.98 96.5636 148.766 96.5636 149.656V162H90.5124ZM115.722 162.426C113.516 162.426 111.607 161.957 109.998 161.02C108.397 160.073 107.161 158.757 106.29 157.071C105.419 155.376 104.983 153.411 104.983 151.176C104.983 148.922 105.419 146.953 106.29 145.267C107.161 143.572 108.397 142.256 109.998 141.318C111.607 140.371 113.516 139.898 115.722 139.898C117.928 139.898 119.832 140.371 121.432 141.318C123.042 142.256 124.283 143.572 125.154 145.267C126.025 146.953 126.461 148.922 126.461 151.176C126.461 153.411 126.025 155.376 125.154 157.071C124.283 158.757 123.042 160.073 121.432 161.02C119.832 161.957 117.928 162.426 115.722 162.426ZM115.75 157.739C116.754 157.739 117.592 157.455 118.265 156.886C118.937 156.309 119.444 155.523 119.784 154.528C120.135 153.534 120.31 152.402 120.31 151.134C120.31 149.865 120.135 148.733 119.784 147.739C119.444 146.744 118.937 145.958 118.265 145.381C117.592 144.803 116.754 144.514 115.75 144.514C114.737 144.514 113.885 144.803 113.194 145.381C112.512 145.958 111.996 146.744 111.645 147.739C111.304 148.733 111.134 149.865 111.134 151.134C111.134 152.402 111.304 153.534 111.645 154.528C111.996 155.523 112.512 156.309 113.194 156.886C113.885 157.455 114.737 157.739 115.75 157.739ZM148.549 146.403L143.009 146.744C142.914 146.271 142.711 145.845 142.398 145.466C142.086 145.078 141.674 144.77 141.162 144.543C140.66 144.306 140.059 144.188 139.358 144.188C138.421 144.188 137.63 144.386 136.986 144.784C136.342 145.172 136.02 145.693 136.02 146.347C136.02 146.867 136.229 147.308 136.645 147.668C137.062 148.027 137.777 148.316 138.79 148.534L142.739 149.33C144.86 149.765 146.442 150.466 147.483 151.432C148.525 152.398 149.046 153.667 149.046 155.239C149.046 156.669 148.624 157.923 147.782 159.003C146.948 160.082 145.802 160.925 144.344 161.531C142.895 162.128 141.224 162.426 139.33 162.426C136.442 162.426 134.141 161.825 132.426 160.622C130.722 159.41 129.723 157.762 129.429 155.679L135.381 155.366C135.561 156.247 135.997 156.92 136.688 157.384C137.379 157.838 138.265 158.065 139.344 158.065C140.405 158.065 141.257 157.862 141.901 157.455C142.554 157.038 142.886 156.503 142.895 155.849C142.886 155.3 142.654 154.85 142.199 154.5C141.745 154.14 141.044 153.866 140.097 153.676L136.319 152.923C134.188 152.497 132.602 151.759 131.56 150.707C130.528 149.656 130.012 148.316 130.012 146.688C130.012 145.286 130.391 144.079 131.148 143.065C131.915 142.052 132.99 141.271 134.373 140.722C135.765 140.172 137.393 139.898 139.259 139.898C142.015 139.898 144.183 140.48 145.765 141.645C147.355 142.81 148.283 144.396 148.549 146.403ZM171.01 146.403L165.47 146.744C165.375 146.271 165.172 145.845 164.859 145.466C164.547 145.078 164.135 144.77 163.623 144.543C163.121 144.306 162.52 144.188 161.819 144.188C160.882 144.188 160.091 144.386 159.447 144.784C158.803 145.172 158.481 145.693 158.481 146.347C158.481 146.867 158.69 147.308 159.106 147.668C159.523 148.027 160.238 148.316 161.251 148.534L165.2 149.33C167.321 149.765 168.903 150.466 169.944 151.432C170.986 152.398 171.507 153.667 171.507 155.239C171.507 156.669 171.085 157.923 170.243 159.003C169.409 160.082 168.263 160.925 166.805 161.531C165.356 162.128 163.685 162.426 161.791 162.426C158.903 162.426 156.601 161.825 154.887 160.622C153.183 159.41 152.184 157.762 151.89 155.679L157.842 155.366C158.022 156.247 158.458 156.92 159.149 157.384C159.84 157.838 160.725 158.065 161.805 158.065C162.866 158.065 163.718 157.862 164.362 157.455C165.015 157.038 165.347 156.503 165.356 155.849C165.347 155.3 165.115 154.85 164.66 154.5C164.206 154.14 163.505 153.866 162.558 153.676L158.779 152.923C156.649 152.497 155.063 151.759 154.021 150.707C152.989 149.656 152.473 148.316 152.473 146.688C152.473 145.286 152.851 144.079 153.609 143.065C154.376 142.052 155.451 141.271 156.833 140.722C158.225 140.172 159.854 139.898 161.72 139.898C164.475 139.898 166.644 140.48 168.225 141.645C169.816 142.81 170.744 144.396 171.01 146.403ZM201.098 143.094H194.877C194.763 142.289 194.531 141.574 194.181 140.949C193.83 140.314 193.381 139.775 192.831 139.33C192.282 138.884 191.648 138.544 190.928 138.307C190.218 138.07 189.446 137.952 188.613 137.952C187.107 137.952 185.795 138.326 184.678 139.074C183.56 139.812 182.694 140.892 182.078 142.312C181.463 143.723 181.155 145.437 181.155 147.455C181.155 149.528 181.463 151.271 182.078 152.682C182.703 154.093 183.575 155.158 184.692 155.878C185.81 156.598 187.102 156.957 188.57 156.957C189.394 156.957 190.156 156.848 190.857 156.631C191.567 156.413 192.197 156.096 192.746 155.679C193.295 155.253 193.75 154.737 194.11 154.131C194.479 153.525 194.735 152.833 194.877 152.057L201.098 152.085C200.937 153.42 200.535 154.708 199.891 155.949C199.257 157.18 198.4 158.283 197.32 159.259C196.25 160.224 194.971 160.991 193.485 161.56C192.007 162.118 190.336 162.398 188.471 162.398C185.876 162.398 183.556 161.811 181.51 160.636C179.474 159.462 177.864 157.762 176.681 155.537C175.507 153.312 174.919 150.617 174.919 147.455C174.919 144.282 175.516 141.583 176.709 139.358C177.902 137.133 179.522 135.437 181.567 134.273C183.613 133.098 185.914 132.511 188.471 132.511C190.156 132.511 191.719 132.748 193.158 133.222C194.607 133.695 195.89 134.386 197.007 135.295C198.125 136.195 199.034 137.298 199.735 138.605C200.445 139.912 200.9 141.408 201.098 143.094ZM211.617 162.412C210.225 162.412 208.984 162.17 207.895 161.688C206.806 161.195 205.944 160.471 205.31 159.514C204.685 158.548 204.373 157.346 204.373 155.906C204.373 154.694 204.595 153.676 205.04 152.852C205.485 152.028 206.091 151.366 206.858 150.864C207.625 150.362 208.497 149.983 209.472 149.727C210.457 149.472 211.489 149.292 212.569 149.188C213.837 149.055 214.86 148.932 215.637 148.818C216.413 148.695 216.977 148.515 217.327 148.278C217.677 148.042 217.853 147.691 217.853 147.227V147.142C217.853 146.242 217.569 145.546 217 145.054C216.442 144.562 215.646 144.315 214.614 144.315C213.525 144.315 212.658 144.557 212.015 145.04C211.371 145.513 210.944 146.11 210.736 146.83L205.14 146.375C205.424 145.049 205.982 143.903 206.816 142.938C207.649 141.962 208.724 141.214 210.04 140.693C211.366 140.163 212.9 139.898 214.642 139.898C215.855 139.898 217.015 140.04 218.123 140.324C219.24 140.608 220.23 141.048 221.091 141.645C221.962 142.241 222.649 143.009 223.151 143.946C223.653 144.874 223.904 145.987 223.904 147.284V162H218.165V158.974H217.995C217.644 159.656 217.176 160.258 216.588 160.778C216.001 161.29 215.296 161.692 214.472 161.986C213.648 162.27 212.696 162.412 211.617 162.412ZM213.35 158.236C214.24 158.236 215.026 158.061 215.708 157.71C216.39 157.35 216.925 156.867 217.313 156.261C217.701 155.655 217.895 154.969 217.895 154.202V151.886C217.706 152.009 217.445 152.123 217.114 152.227C216.792 152.322 216.427 152.412 216.02 152.497C215.613 152.573 215.206 152.644 214.799 152.71C214.391 152.767 214.022 152.819 213.691 152.866C212.98 152.971 212.36 153.136 211.83 153.364C211.3 153.591 210.888 153.899 210.594 154.287C210.301 154.666 210.154 155.139 210.154 155.707C210.154 156.531 210.452 157.161 211.049 157.597C211.655 158.023 212.422 158.236 213.35 158.236ZM234.65 132.909V162H228.598V132.909H234.65ZM245.548 132.909V162H239.497V132.909H245.548Z" fill="white"/>
<path d="M136.21 201V177.727H145.392C147.157 177.727 148.661 178.064 149.903 178.739C151.146 179.405 152.093 180.333 152.744 181.523C153.403 182.705 153.733 184.068 153.733 185.614C153.733 187.159 153.4 188.523 152.733 189.705C152.066 190.886 151.1 191.807 149.835 192.466C148.578 193.125 147.055 193.455 145.267 193.455H139.415V189.511H144.472C145.419 189.511 146.199 189.348 146.812 189.023C147.434 188.689 147.896 188.231 148.199 187.648C148.509 187.057 148.665 186.379 148.665 185.614C148.665 184.841 148.509 184.167 148.199 183.591C147.896 183.008 147.434 182.557 146.812 182.239C146.191 181.913 145.403 181.75 144.449 181.75H141.131V201H136.21ZM156.838 201V183.545H161.531V186.591H161.713C162.031 185.508 162.565 184.689 163.315 184.136C164.065 183.576 164.929 183.295 165.906 183.295C166.149 183.295 166.41 183.311 166.69 183.341C166.971 183.371 167.217 183.413 167.429 183.466V187.761C167.202 187.693 166.887 187.633 166.486 187.58C166.084 187.527 165.717 187.5 165.384 187.5C164.671 187.5 164.035 187.655 163.474 187.966C162.921 188.269 162.482 188.693 162.156 189.239C161.838 189.784 161.679 190.413 161.679 191.125V201H156.838ZM177.006 201.341C175.241 201.341 173.714 200.966 172.426 200.216C171.146 199.458 170.157 198.405 169.46 197.057C168.763 195.701 168.415 194.129 168.415 192.341C168.415 190.538 168.763 188.962 169.46 187.614C170.157 186.258 171.146 185.205 172.426 184.455C173.714 183.697 175.241 183.318 177.006 183.318C178.771 183.318 180.294 183.697 181.574 184.455C182.862 185.205 183.854 186.258 184.551 187.614C185.248 188.962 185.597 190.538 185.597 192.341C185.597 194.129 185.248 195.701 184.551 197.057C183.854 198.405 182.862 199.458 181.574 200.216C180.294 200.966 178.771 201.341 177.006 201.341ZM177.028 197.591C177.831 197.591 178.502 197.364 179.04 196.909C179.578 196.447 179.983 195.818 180.256 195.023C180.536 194.227 180.676 193.322 180.676 192.307C180.676 191.292 180.536 190.386 180.256 189.591C179.983 188.795 179.578 188.167 179.04 187.705C178.502 187.242 177.831 187.011 177.028 187.011C176.218 187.011 175.536 187.242 174.983 187.705C174.438 188.167 174.025 188.795 173.744 189.591C173.472 190.386 173.335 191.292 173.335 192.307C173.335 193.322 173.472 194.227 173.744 195.023C174.025 195.818 174.438 196.447 174.983 196.909C175.536 197.364 176.218 197.591 177.028 197.591ZM198.028 183.545V187.182H187.517V183.545H198.028ZM189.903 179.364H194.744V195.636C194.744 196.083 194.813 196.432 194.949 196.682C195.085 196.924 195.275 197.095 195.517 197.193C195.767 197.292 196.055 197.341 196.381 197.341C196.608 197.341 196.835 197.322 197.062 197.284C197.29 197.239 197.464 197.205 197.585 197.182L198.347 200.784C198.104 200.86 197.763 200.947 197.324 201.045C196.884 201.152 196.35 201.216 195.722 201.239C194.555 201.284 193.532 201.129 192.653 200.773C191.782 200.417 191.104 199.864 190.619 199.114C190.134 198.364 189.896 197.417 189.903 196.273V179.364ZM208.881 201.341C207.116 201.341 205.589 200.966 204.301 200.216C203.021 199.458 202.032 198.405 201.335 197.057C200.638 195.701 200.29 194.129 200.29 192.341C200.29 190.538 200.638 188.962 201.335 187.614C202.032 186.258 203.021 185.205 204.301 184.455C205.589 183.697 207.116 183.318 208.881 183.318C210.646 183.318 212.169 183.697 213.449 184.455C214.737 185.205 215.729 186.258 216.426 187.614C217.123 188.962 217.472 190.538 217.472 192.341C217.472 194.129 217.123 195.701 216.426 197.057C215.729 198.405 214.737 199.458 213.449 200.216C212.169 200.966 210.646 201.341 208.881 201.341ZM208.903 197.591C209.706 197.591 210.377 197.364 210.915 196.909C211.453 196.447 211.858 195.818 212.131 195.023C212.411 194.227 212.551 193.322 212.551 192.307C212.551 191.292 212.411 190.386 212.131 189.591C211.858 188.795 211.453 188.167 210.915 187.705C210.377 187.242 209.706 187.011 208.903 187.011C208.093 187.011 207.411 187.242 206.858 187.705C206.313 188.167 205.9 188.795 205.619 189.591C205.347 190.386 205.21 191.292 205.21 192.307C205.21 193.322 205.347 194.227 205.619 195.023C205.9 195.818 206.313 196.447 206.858 196.909C207.411 197.364 208.093 197.591 208.903 197.591ZM228.506 201.341C226.718 201.341 225.18 200.962 223.892 200.205C222.612 199.439 221.627 198.379 220.938 197.023C220.256 195.667 219.915 194.106 219.915 192.341C219.915 190.553 220.259 188.985 220.949 187.636C221.646 186.28 222.634 185.223 223.915 184.466C225.195 183.701 226.718 183.318 228.483 183.318C230.006 183.318 231.339 183.595 232.483 184.148C233.627 184.701 234.532 185.477 235.199 186.477C235.866 187.477 236.233 188.652 236.301 190H231.733C231.604 189.129 231.263 188.428 230.71 187.898C230.165 187.36 229.449 187.091 228.562 187.091C227.812 187.091 227.157 187.295 226.597 187.705C226.044 188.106 225.612 188.693 225.301 189.466C224.991 190.239 224.835 191.174 224.835 192.273C224.835 193.386 224.987 194.333 225.29 195.114C225.6 195.894 226.036 196.489 226.597 196.898C227.157 197.307 227.812 197.511 228.562 197.511C229.116 197.511 229.612 197.398 230.051 197.17C230.498 196.943 230.866 196.614 231.153 196.182C231.449 195.742 231.642 195.216 231.733 194.602H236.301C236.225 195.936 235.862 197.11 235.21 198.125C234.566 199.133 233.676 199.92 232.54 200.489C231.403 201.057 230.059 201.341 228.506 201.341ZM247.287 201.341C245.522 201.341 243.995 200.966 242.707 200.216C241.427 199.458 240.438 198.405 239.741 197.057C239.045 195.701 238.696 194.129 238.696 192.341C238.696 190.538 239.045 188.962 239.741 187.614C240.438 186.258 241.427 185.205 242.707 184.455C243.995 183.697 245.522 183.318 247.287 183.318C249.052 183.318 250.575 183.697 251.855 184.455C253.143 185.205 254.135 186.258 254.832 187.614C255.529 188.962 255.878 190.538 255.878 192.341C255.878 194.129 255.529 195.701 254.832 197.057C254.135 198.405 253.143 199.458 251.855 200.216C250.575 200.966 249.052 201.341 247.287 201.341ZM247.31 197.591C248.113 197.591 248.783 197.364 249.321 196.909C249.859 196.447 250.264 195.818 250.537 195.023C250.817 194.227 250.957 193.322 250.957 192.307C250.957 191.292 250.817 190.386 250.537 189.591C250.264 188.795 249.859 188.167 249.321 187.705C248.783 187.242 248.113 187.011 247.31 187.011C246.499 187.011 245.817 187.242 245.264 187.705C244.719 188.167 244.306 188.795 244.026 189.591C243.753 190.386 243.616 191.292 243.616 192.307C243.616 193.322 243.753 194.227 244.026 195.023C244.306 195.818 244.719 196.447 245.264 196.909C245.817 197.364 246.499 197.591 247.31 197.591ZM263.866 177.727V201H259.026V177.727H263.866Z" fill="white"/>
</svg>
